<?xml version="1.0" encoding="UTF-8" standalone="no"?>
<!DOCTYPE svg PUBLIC "-//W3C//DTD SVG 1.1//EN"
 "http://www.w3.org/Graphics/SVG/1.1/DTD/svg11.dtd">
<!-- Generated by graphviz version 2.50.0 (0)
 -->
<!-- Title: fx_pipe Pages: 1 -->
<svg width="868pt" height="1922pt"
 viewBox="0.00 0.00 868.00 1922.00" xmlns="http://www.w3.org/2000/svg" xmlns:xlink="http://www.w3.org/1999/xlink">
<g id="graph0" class="graph" transform="scale(1 1) rotate(0) translate(4 1918)">
<title>fx_pipe</title>
<polygon fill="white" stroke="transparent" points="-4,4 -4,-1918 864,-1918 864,4 -4,4"/>
<!-- primals_3 -->
<g id="node1" class="node">
<title>primals_3</title>
<path fill="AliceBlue" stroke="black" d="M12,-792.5C12,-792.5 157,-792.5 157,-792.5 163,-792.5 169,-798.5 169,-804.5 169,-804.5 169,-964.5 169,-964.5 169,-970.5 163,-976.5 157,-976.5 157,-976.5 12,-976.5 12,-976.5 6,-976.5 0,-970.5 0,-964.5 0,-964.5 0,-804.5 0,-804.5 0,-798.5 6,-792.5 12,-792.5"/>
<text text-anchor="middle" x="84.5" y="-961.3" font-family="Times,serif" font-size="14.00" fill="#000000">name=%primals_3</text>
<polyline fill="none" stroke="black" points="0,-953.5 169,-953.5 "/>
<text text-anchor="middle" x="84.5" y="-938.3" font-family="Times,serif" font-size="14.00" fill="#000000">op_code=placeholder</text>
<polyline fill="none" stroke="black" points="0,-930.5 169,-930.5 "/>
<text text-anchor="middle" x="84.5" y="-915.3" font-family="Times,serif" font-size="14.00" fill="#000000">target=primals_3</text>
<polyline fill="none" stroke="black" points="0,-907.5 169,-907.5 "/>
<text text-anchor="middle" x="84.5" y="-892.3" font-family="Times,serif" font-size="14.00" fill="#000000">num_users=1</text>
<polyline fill="none" stroke="black" points="0,-884.5 169,-884.5 "/>
<text text-anchor="middle" x="84.5" y="-869.3" font-family="Times,serif" font-size="14.00" fill="#000000">dtype=torch.float32</text>
<polyline fill="none" stroke="black" points="0,-861.5 169,-861.5 "/>
<text text-anchor="middle" x="84.5" y="-846.3" font-family="Times,serif" font-size="14.00" fill="#000000">shape=(20, 50)</text>
<polyline fill="none" stroke="black" points="0,-838.5 169,-838.5 "/>
<text text-anchor="middle" x="84.5" y="-823.3" font-family="Times,serif" font-size="14.00" fill="#000000">requires_grad=False</text>
<polyline fill="none" stroke="black" points="0,-815.5 169,-815.5 "/>
<text text-anchor="middle" x="84.5" y="-800.3" font-family="Times,serif" font-size="14.00" fill="#000000">stride=(50, 1)</text>
</g>
<!-- mm_4 -->
<g id="node13" class="node">
<title>mm_4</title>
<path fill="#ffdab9" stroke="black" d="M188.5,-571.5C188.5,-571.5 426.5,-571.5 426.5,-571.5 432.5,-571.5 438.5,-577.5 438.5,-583.5 438.5,-583.5 438.5,-743.5 438.5,-743.5 438.5,-749.5 432.5,-755.5 426.5,-755.5 426.5,-755.5 188.5,-755.5 188.5,-755.5 182.5,-755.5 176.5,-749.5 176.5,-743.5 176.5,-743.5 176.5,-583.5 176.5,-583.5 176.5,-577.5 182.5,-571.5 188.5,-571.5"/>
<text text-anchor="middle" x="307.5" y="-740.3" font-family="Times,serif" font-size="14.00" fill="#000000">name=%mm_4</text>
<polyline fill="none" stroke="black" points="176.5,-732.5 438.5,-732.5 "/>
<text text-anchor="middle" x="307.5" y="-717.3" font-family="Times,serif" font-size="14.00" fill="#000000">op_code=call_function</text>
<polyline fill="none" stroke="black" points="176.5,-709.5 438.5,-709.5 "/>
<text text-anchor="middle" x="307.5" y="-694.3" font-family="Times,serif" font-size="14.00" fill="#000000">target=torch.ops.aten.mm.default</text>
<polyline fill="none" stroke="black" points="176.5,-686.5 438.5,-686.5 "/>
<text text-anchor="middle" x="307.5" y="-671.3" font-family="Times,serif" font-size="14.00" fill="#000000">num_users=1</text>
<polyline fill="none" stroke="black" points="176.5,-663.5 438.5,-663.5 "/>
<text text-anchor="middle" x="307.5" y="-648.3" font-family="Times,serif" font-size="14.00" fill="#000000">dtype=torch.float32</text>
<polyline fill="none" stroke="black" points="176.5,-640.5 438.5,-640.5 "/>
<text text-anchor="middle" x="307.5" y="-625.3" font-family="Times,serif" font-size="14.00" fill="#000000">shape=(100, 50)</text>
<polyline fill="none" stroke="black" points="176.5,-617.5 438.5,-617.5 "/>
<text text-anchor="middle" x="307.5" y="-602.3" font-family="Times,serif" font-size="14.00" fill="#000000">requires_grad=False</text>
<polyline fill="none" stroke="black" points="176.5,-594.5 438.5,-594.5 "/>
<text text-anchor="middle" x="307.5" y="-579.3" font-family="Times,serif" font-size="14.00" fill="#000000">stride=(50, 1)</text>
</g>
<!-- primals_3&#45;&gt;mm_4 -->
<g id="edge1" class="edge">
<title>primals_3&#45;&gt;mm_4</title>
<path fill="none" stroke="black" d="M169.12,-800.39C181.59,-788.15 194.53,-775.45 207.27,-762.93"/>
<polygon fill="black" stroke="black" points="210.06,-765.1 214.74,-755.6 205.15,-760.1 210.06,-765.1"/>
</g>
<!-- _to_copy -->
<g id="node2" class="node">
<title>_to_copy</title>
<path fill="AliceBlue" stroke="black" d="M703,-1287.5C703,-1287.5 848,-1287.5 848,-1287.5 854,-1287.5 860,-1293.5 860,-1299.5 860,-1299.5 860,-1459.5 860,-1459.5 860,-1465.5 854,-1471.5 848,-1471.5 848,-1471.5 703,-1471.5 703,-1471.5 697,-1471.5 691,-1465.5 691,-1459.5 691,-1459.5 691,-1299.5 691,-1299.5 691,-1293.5 697,-1287.5 703,-1287.5"/>
<text text-anchor="middle" x="775.5" y="-1456.3" font-family="Times,serif" font-size="14.00" fill="#000000">name=%_to_copy</text>
<polyline fill="none" stroke="black" points="691,-1448.5 860,-1448.5 "/>
<text text-anchor="middle" x="775.5" y="-1433.3" font-family="Times,serif" font-size="14.00" fill="#000000">op_code=placeholder</text>
<polyline fill="none" stroke="black" points="691,-1425.5 860,-1425.5 "/>
<text text-anchor="middle" x="775.5" y="-1410.3" font-family="Times,serif" font-size="14.00" fill="#000000">target=_to_copy</text>
<polyline fill="none" stroke="black" points="691,-1402.5 860,-1402.5 "/>
<text text-anchor="middle" x="775.5" y="-1387.3" font-family="Times,serif" font-size="14.00" fill="#000000">num_users=1</text>
<polyline fill="none" stroke="black" points="691,-1379.5 860,-1379.5 "/>
<text text-anchor="middle" x="775.5" y="-1364.3" font-family="Times,serif" font-size="14.00" fill="#000000">dtype=torch.float32</text>
<polyline fill="none" stroke="black" points="691,-1356.5 860,-1356.5 "/>
<text text-anchor="middle" x="775.5" y="-1341.3" font-family="Times,serif" font-size="14.00" fill="#000000">shape=(20, 100)</text>
<polyline fill="none" stroke="black" points="691,-1333.5 860,-1333.5 "/>
<text text-anchor="middle" x="775.5" y="-1318.3" font-family="Times,serif" font-size="14.00" fill="#000000">requires_grad=False</text>
<polyline fill="none" stroke="black" points="691,-1310.5 860,-1310.5 "/>
<text text-anchor="middle" x="775.5" y="-1295.3" font-family="Times,serif" font-size="14.00" fill="#000000">stride=(100, 1)</text>
</g>
<!-- mm_2 -->
<g id="node6" class="node">
<title>mm_2</title>
<path fill="#ffdab9" stroke="black" d="M522.5,-1040C522.5,-1040 760.5,-1040 760.5,-1040 766.5,-1040 772.5,-1046 772.5,-1052 772.5,-1052 772.5,-1212 772.5,-1212 772.5,-1218 766.5,-1224 760.5,-1224 760.5,-1224 522.5,-1224 522.5,-1224 516.5,-1224 510.5,-1218 510.5,-1212 510.5,-1212 510.5,-1052 510.5,-1052 510.5,-1046 516.5,-1040 522.5,-1040"/>
<text text-anchor="middle" x="641.5" y="-1208.8" font-family="Times,serif" font-size="14.00" fill="#000000">name=%mm_2</text>
<polyline fill="none" stroke="black" points="510.5,-1201 772.5,-1201 "/>
<text text-anchor="middle" x="641.5" y="-1185.8" font-family="Times,serif" font-size="14.00" fill="#000000">op_code=call_function</text>
<polyline fill="none" stroke="black" points="510.5,-1178 772.5,-1178 "/>
<text text-anchor="middle" x="641.5" y="-1162.8" font-family="Times,serif" font-size="14.00" fill="#000000">target=torch.ops.aten.mm.default</text>
<polyline fill="none" stroke="black" points="510.5,-1155 772.5,-1155 "/>
<text text-anchor="middle" x="641.5" y="-1139.8" font-family="Times,serif" font-size="14.00" fill="#000000">num_users=1</text>
<polyline fill="none" stroke="black" points="510.5,-1132 772.5,-1132 "/>
<text text-anchor="middle" x="641.5" y="-1116.8" font-family="Times,serif" font-size="14.00" fill="#000000">dtype=torch.float32</text>
<polyline fill="none" stroke="black" points="510.5,-1109 772.5,-1109 "/>
<text text-anchor="middle" x="641.5" y="-1093.8" font-family="Times,serif" font-size="14.00" fill="#000000">shape=(30, 100)</text>
<polyline fill="none" stroke="black" points="510.5,-1086 772.5,-1086 "/>
<text text-anchor="middle" x="641.5" y="-1070.8" font-family="Times,serif" font-size="14.00" fill="#000000">requires_grad=False</text>
<polyline fill="none" stroke="black" points="510.5,-1063 772.5,-1063 "/>
<text text-anchor="middle" x="641.5" y="-1047.8" font-family="Times,serif" font-size="14.00" fill="#000000">stride=(100, 1)</text>
</g>
<!-- _to_copy&#45;&gt;mm_2 -->
<g id="edge2" class="edge">
<title>_to_copy&#45;&gt;mm_2</title>
<path fill="none" stroke="black" d="M725.79,-1287.43C716.22,-1269.89 706.13,-1251.41 696.4,-1233.58"/>
<polygon fill="black" stroke="black" points="699.21,-1231.43 691.35,-1224.33 693.07,-1234.78 699.21,-1231.43"/>
</g>
<!-- t_1 -->
<g id="node3" class="node">
<title>t_1</title>
<path fill="AliceBlue" stroke="black" d="M210,-1729.5C210,-1729.5 355,-1729.5 355,-1729.5 361,-1729.5 367,-1735.5 367,-1741.5 367,-1741.5 367,-1901.5 367,-1901.5 367,-1907.5 361,-1913.5 355,-1913.5 355,-1913.5 210,-1913.5 210,-1913.5 204,-1913.5 198,-1907.5 198,-1901.5 198,-1901.5 198,-1741.5 198,-1741.5 198,-1735.5 204,-1729.5 210,-1729.5"/>
<text text-anchor="middle" x="282.5" y="-1898.3" font-family="Times,serif" font-size="14.00" fill="#000000">name=%t_1</text>
<polyline fill="none" stroke="black" points="198,-1890.5 367,-1890.5 "/>
<text text-anchor="middle" x="282.5" y="-1875.3" font-family="Times,serif" font-size="14.00" fill="#000000">op_code=placeholder</text>
<polyline fill="none" stroke="black" points="198,-1867.5 367,-1867.5 "/>
<text text-anchor="middle" x="282.5" y="-1852.3" font-family="Times,serif" font-size="14.00" fill="#000000">target=t_1</text>
<polyline fill="none" stroke="black" points="198,-1844.5 367,-1844.5 "/>
<text text-anchor="middle" x="282.5" y="-1829.3" font-family="Times,serif" font-size="14.00" fill="#000000">num_users=1</text>
<polyline fill="none" stroke="black" points="198,-1821.5 367,-1821.5 "/>
<text text-anchor="middle" x="282.5" y="-1806.3" font-family="Times,serif" font-size="14.00" fill="#000000">dtype=torch.float32</text>
<polyline fill="none" stroke="black" points="198,-1798.5 367,-1798.5 "/>
<text text-anchor="middle" x="282.5" y="-1783.3" font-family="Times,serif" font-size="14.00" fill="#000000">shape=(100, 30)</text>
<polyline fill="none" stroke="black" points="198,-1775.5 367,-1775.5 "/>
<text text-anchor="middle" x="282.5" y="-1760.3" font-family="Times,serif" font-size="14.00" fill="#000000">requires_grad=False</text>
<polyline fill="none" stroke="black" points="198,-1752.5 367,-1752.5 "/>
<text text-anchor="middle" x="282.5" y="-1737.3" font-family="Times,serif" font-size="14.00" fill="#000000">stride=(1, 100)</text>
</g>
<!-- t_4 -->
<g id="node8" class="node">
<title>t_4</title>
<path fill="#caff70" stroke="black" d="M174,-1508.5C174,-1508.5 391,-1508.5 391,-1508.5 397,-1508.5 403,-1514.5 403,-1520.5 403,-1520.5 403,-1680.5 403,-1680.5 403,-1686.5 397,-1692.5 391,-1692.5 391,-1692.5 174,-1692.5 174,-1692.5 168,-1692.5 162,-1686.5 162,-1680.5 162,-1680.5 162,-1520.5 162,-1520.5 162,-1514.5 168,-1508.5 174,-1508.5"/>
<text text-anchor="middle" x="282.5" y="-1677.3" font-family="Times,serif" font-size="14.00" fill="#000000">name=%t_4</text>
<polyline fill="none" stroke="black" points="162,-1669.5 403,-1669.5 "/>
<text text-anchor="middle" x="282.5" y="-1654.3" font-family="Times,serif" font-size="14.00" fill="#000000">op_code=call_function</text>
<polyline fill="none" stroke="black" points="162,-1646.5 403,-1646.5 "/>
<text text-anchor="middle" x="282.5" y="-1631.3" font-family="Times,serif" font-size="14.00" fill="#000000">target=torch.ops.aten.t.default</text>
<polyline fill="none" stroke="black" points="162,-1623.5 403,-1623.5 "/>
<text text-anchor="middle" x="282.5" y="-1608.3" font-family="Times,serif" font-size="14.00" fill="#000000">num_users=1</text>
<polyline fill="none" stroke="black" points="162,-1600.5 403,-1600.5 "/>
<text text-anchor="middle" x="282.5" y="-1585.3" font-family="Times,serif" font-size="14.00" fill="#000000">dtype=torch.float32</text>
<polyline fill="none" stroke="black" points="162,-1577.5 403,-1577.5 "/>
<text text-anchor="middle" x="282.5" y="-1562.3" font-family="Times,serif" font-size="14.00" fill="#000000">shape=(30, 100)</text>
<polyline fill="none" stroke="black" points="162,-1554.5 403,-1554.5 "/>
<text text-anchor="middle" x="282.5" y="-1539.3" font-family="Times,serif" font-size="14.00" fill="#000000">requires_grad=False</text>
<polyline fill="none" stroke="black" points="162,-1531.5 403,-1531.5 "/>
<text text-anchor="middle" x="282.5" y="-1516.3" font-family="Times,serif" font-size="14.00" fill="#000000">stride=(100, 1)</text>
</g>
<!-- t_1&#45;&gt;t_4 -->
<g id="edge3" class="edge">
<title>t_1&#45;&gt;t_4</title>
<path fill="none" stroke="black" d="M282.5,-1729.21C282.5,-1720.52 282.5,-1711.68 282.5,-1702.9"/>
<polygon fill="black" stroke="black" points="286,-1702.64 282.5,-1692.64 279,-1702.64 286,-1702.64"/>
</g>
<!-- tangents_1 -->
<g id="node4" class="node">
<title>tangents_1</title>
<path fill="AliceBlue" stroke="black" d="M456,-1508.5C456,-1508.5 601,-1508.5 601,-1508.5 607,-1508.5 613,-1514.5 613,-1520.5 613,-1520.5 613,-1680.5 613,-1680.5 613,-1686.5 607,-1692.5 601,-1692.5 601,-1692.5 456,-1692.5 456,-1692.5 450,-1692.5 444,-1686.5 444,-1680.5 444,-1680.5 444,-1520.5 444,-1520.5 444,-1514.5 450,-1508.5 456,-1508.5"/>
<text text-anchor="middle" x="528.5" y="-1677.3" font-family="Times,serif" font-size="14.00" fill="#000000">name=%tangents_1</text>
<polyline fill="none" stroke="black" points="444,-1669.5 613,-1669.5 "/>
<text text-anchor="middle" x="528.5" y="-1654.3" font-family="Times,serif" font-size="14.00" fill="#000000">op_code=placeholder</text>
<polyline fill="none" stroke="black" points="444,-1646.5 613,-1646.5 "/>
<text text-anchor="middle" x="528.5" y="-1631.3" font-family="Times,serif" font-size="14.00" fill="#000000">target=tangents_1</text>
<polyline fill="none" stroke="black" points="444,-1623.5 613,-1623.5 "/>
<text text-anchor="middle" x="528.5" y="-1608.3" font-family="Times,serif" font-size="14.00" fill="#000000">num_users=2</text>
<polyline fill="none" stroke="black" points="444,-1600.5 613,-1600.5 "/>
<text text-anchor="middle" x="528.5" y="-1585.3" font-family="Times,serif" font-size="14.00" fill="#000000">dtype=torch.float32</text>
<polyline fill="none" stroke="black" points="444,-1577.5 613,-1577.5 "/>
<text text-anchor="middle" x="528.5" y="-1562.3" font-family="Times,serif" font-size="14.00" fill="#000000">shape=(20, 30)</text>
<polyline fill="none" stroke="black" points="444,-1554.5 613,-1554.5 "/>
<text text-anchor="middle" x="528.5" y="-1539.3" font-family="Times,serif" font-size="14.00" fill="#000000">requires_grad=False</text>
<polyline fill="none" stroke="black" points="444,-1531.5 613,-1531.5 "/>
<text text-anchor="middle" x="528.5" y="-1516.3" font-family="Times,serif" font-size="14.00" fill="#000000">stride=(30, 1)</text>
</g>
<!-- t_2 -->
<g id="node5" class="node">
<title>t_2</title>
<path fill="#caff70" stroke="black" d="M444,-1287.5C444,-1287.5 661,-1287.5 661,-1287.5 667,-1287.5 673,-1293.5 673,-1299.5 673,-1299.5 673,-1459.5 673,-1459.5 673,-1465.5 667,-1471.5 661,-1471.5 661,-1471.5 444,-1471.5 444,-1471.5 438,-1471.5 432,-1465.5 432,-1459.5 432,-1459.5 432,-1299.5 432,-1299.5 432,-1293.5 438,-1287.5 444,-1287.5"/>
<text text-anchor="middle" x="552.5" y="-1456.3" font-family="Times,serif" font-size="14.00" fill="#000000">name=%t_2</text>
<polyline fill="none" stroke="black" points="432,-1448.5 673,-1448.5 "/>
<text text-anchor="middle" x="552.5" y="-1433.3" font-family="Times,serif" font-size="14.00" fill="#000000">op_code=call_function</text>
<polyline fill="none" stroke="black" points="432,-1425.5 673,-1425.5 "/>
<text text-anchor="middle" x="552.5" y="-1410.3" font-family="Times,serif" font-size="14.00" fill="#000000">target=torch.ops.aten.t.default</text>
<polyline fill="none" stroke="black" points="432,-1402.5 673,-1402.5 "/>
<text text-anchor="middle" x="552.5" y="-1387.3" font-family="Times,serif" font-size="14.00" fill="#000000">num_users=1</text>
<polyline fill="none" stroke="black" points="432,-1379.5 673,-1379.5 "/>
<text text-anchor="middle" x="552.5" y="-1364.3" font-family="Times,serif" font-size="14.00" fill="#000000">dtype=torch.float32</text>
<polyline fill="none" stroke="black" points="432,-1356.5 673,-1356.5 "/>
<text text-anchor="middle" x="552.5" y="-1341.3" font-family="Times,serif" font-size="14.00" fill="#000000">shape=(30, 20)</text>
<polyline fill="none" stroke="black" points="432,-1333.5 673,-1333.5 "/>
<text text-anchor="middle" x="552.5" y="-1318.3" font-family="Times,serif" font-size="14.00" fill="#000000">requires_grad=False</text>
<polyline fill="none" stroke="black" points="432,-1310.5 673,-1310.5 "/>
<text text-anchor="middle" x="552.5" y="-1295.3" font-family="Times,serif" font-size="14.00" fill="#000000">stride=(1, 30)</text>
</g>
<!-- tangents_1&#45;&gt;t_2 -->
<g id="edge4" class="edge">
<title>tangents_1&#45;&gt;t_2</title>
<path fill="none" stroke="black" d="M538.5,-1508.21C539.47,-1499.43 540.45,-1490.48 541.42,-1481.61"/>
<polygon fill="black" stroke="black" points="544.9,-1481.96 542.51,-1471.64 537.94,-1481.2 544.9,-1481.96"/>
</g>
<!-- mm_3 -->
<g id="node9" class="node">
<title>mm_3</title>
<path fill="#ffdab9" stroke="black" d="M163.5,-1287.5C163.5,-1287.5 401.5,-1287.5 401.5,-1287.5 407.5,-1287.5 413.5,-1293.5 413.5,-1299.5 413.5,-1299.5 413.5,-1459.5 413.5,-1459.5 413.5,-1465.5 407.5,-1471.5 401.5,-1471.5 401.5,-1471.5 163.5,-1471.5 163.5,-1471.5 157.5,-1471.5 151.5,-1465.5 151.5,-1459.5 151.5,-1459.5 151.5,-1299.5 151.5,-1299.5 151.5,-1293.5 157.5,-1287.5 163.5,-1287.5"/>
<text text-anchor="middle" x="282.5" y="-1456.3" font-family="Times,serif" font-size="14.00" fill="#000000">name=%mm_3</text>
<polyline fill="none" stroke="black" points="151.5,-1448.5 413.5,-1448.5 "/>
<text text-anchor="middle" x="282.5" y="-1433.3" font-family="Times,serif" font-size="14.00" fill="#000000">op_code=call_function</text>
<polyline fill="none" stroke="black" points="151.5,-1425.5 413.5,-1425.5 "/>
<text text-anchor="middle" x="282.5" y="-1410.3" font-family="Times,serif" font-size="14.00" fill="#000000">target=torch.ops.aten.mm.default</text>
<polyline fill="none" stroke="black" points="151.5,-1402.5 413.5,-1402.5 "/>
<text text-anchor="middle" x="282.5" y="-1387.3" font-family="Times,serif" font-size="14.00" fill="#000000">num_users=1</text>
<polyline fill="none" stroke="black" points="151.5,-1379.5 413.5,-1379.5 "/>
<text text-anchor="middle" x="282.5" y="-1364.3" font-family="Times,serif" font-size="14.00" fill="#000000">dtype=torch.float32</text>
<polyline fill="none" stroke="black" points="151.5,-1356.5 413.5,-1356.5 "/>
<text text-anchor="middle" x="282.5" y="-1341.3" font-family="Times,serif" font-size="14.00" fill="#000000">shape=(20, 100)</text>
<polyline fill="none" stroke="black" points="151.5,-1333.5 413.5,-1333.5 "/>
<text text-anchor="middle" x="282.5" y="-1318.3" font-family="Times,serif" font-size="14.00" fill="#000000">requires_grad=False</text>
<polyline fill="none" stroke="black" points="151.5,-1310.5 413.5,-1310.5 "/>
<text text-anchor="middle" x="282.5" y="-1295.3" font-family="Times,serif" font-size="14.00" fill="#000000">stride=(100, 1)</text>
</g>
<!-- tangents_1&#45;&gt;mm_3 -->
<g id="edge5" class="edge">
<title>tangents_1&#45;&gt;mm_3</title>
<path fill="none" stroke="black" d="M443.84,-1524.13C427.33,-1509.43 409.79,-1493.82 392.6,-1478.51"/>
<polygon fill="black" stroke="black" points="394.52,-1475.54 384.73,-1471.51 389.87,-1480.77 394.52,-1475.54"/>
</g>
<!-- t_2&#45;&gt;mm_2 -->
<g id="edge6" class="edge">
<title>t_2&#45;&gt;mm_2</title>
<path fill="none" stroke="black" d="M585.51,-1287.43C591.82,-1270.05 598.45,-1251.75 604.86,-1234.08"/>
<polygon fill="black" stroke="black" points="608.27,-1234.92 608.39,-1224.33 601.69,-1232.54 608.27,-1234.92"/>
</g>
<!-- t_3 -->
<g id="node7" class="node">
<title>t_3</title>
<path fill="#caff70" stroke="black" d="M508,-792.5C508,-792.5 725,-792.5 725,-792.5 731,-792.5 737,-798.5 737,-804.5 737,-804.5 737,-964.5 737,-964.5 737,-970.5 731,-976.5 725,-976.5 725,-976.5 508,-976.5 508,-976.5 502,-976.5 496,-970.5 496,-964.5 496,-964.5 496,-804.5 496,-804.5 496,-798.5 502,-792.5 508,-792.5"/>
<text text-anchor="middle" x="616.5" y="-961.3" font-family="Times,serif" font-size="14.00" fill="#000000">name=%t_3</text>
<polyline fill="none" stroke="black" points="496,-953.5 737,-953.5 "/>
<text text-anchor="middle" x="616.5" y="-938.3" font-family="Times,serif" font-size="14.00" fill="#000000">op_code=call_function</text>
<polyline fill="none" stroke="black" points="496,-930.5 737,-930.5 "/>
<text text-anchor="middle" x="616.5" y="-915.3" font-family="Times,serif" font-size="14.00" fill="#000000">target=torch.ops.aten.t.default</text>
<polyline fill="none" stroke="black" points="496,-907.5 737,-907.5 "/>
<text text-anchor="middle" x="616.5" y="-892.3" font-family="Times,serif" font-size="14.00" fill="#000000">num_users=1</text>
<polyline fill="none" stroke="black" points="496,-884.5 737,-884.5 "/>
<text text-anchor="middle" x="616.5" y="-869.3" font-family="Times,serif" font-size="14.00" fill="#000000">dtype=torch.float32</text>
<polyline fill="none" stroke="black" points="496,-861.5 737,-861.5 "/>
<text text-anchor="middle" x="616.5" y="-846.3" font-family="Times,serif" font-size="14.00" fill="#000000">shape=(100, 30)</text>
<polyline fill="none" stroke="black" points="496,-838.5 737,-838.5 "/>
<text text-anchor="middle" x="616.5" y="-823.3" font-family="Times,serif" font-size="14.00" fill="#000000">requires_grad=False</text>
<polyline fill="none" stroke="black" points="496,-815.5 737,-815.5 "/>
<text text-anchor="middle" x="616.5" y="-800.3" font-family="Times,serif" font-size="14.00" fill="#000000">stride=(1, 100)</text>
</g>
<!-- mm_2&#45;&gt;t_3 -->
<g id="edge7" class="edge">
<title>mm_2&#45;&gt;t_3</title>
<path fill="none" stroke="black" d="M632.23,-1039.93C630.47,-1022.71 628.63,-1004.59 626.84,-987.07"/>
<polygon fill="black" stroke="black" points="630.3,-986.42 625.8,-976.83 623.33,-987.13 630.3,-986.42"/>
</g>
<!-- t_5 -->
<g id="node10" class="node">
<title>t_5</title>
<path fill="#caff70" stroke="black" d="M495,-350.5C495,-350.5 712,-350.5 712,-350.5 718,-350.5 724,-356.5 724,-362.5 724,-362.5 724,-522.5 724,-522.5 724,-528.5 718,-534.5 712,-534.5 712,-534.5 495,-534.5 495,-534.5 489,-534.5 483,-528.5 483,-522.5 483,-522.5 483,-362.5 483,-362.5 483,-356.5 489,-350.5 495,-350.5"/>
<text text-anchor="middle" x="603.5" y="-519.3" font-family="Times,serif" font-size="14.00" fill="#000000">name=%t_5</text>
<polyline fill="none" stroke="black" points="483,-511.5 724,-511.5 "/>
<text text-anchor="middle" x="603.5" y="-496.3" font-family="Times,serif" font-size="14.00" fill="#000000">op_code=call_function</text>
<polyline fill="none" stroke="black" points="483,-488.5 724,-488.5 "/>
<text text-anchor="middle" x="603.5" y="-473.3" font-family="Times,serif" font-size="14.00" fill="#000000">target=torch.ops.aten.t.default</text>
<polyline fill="none" stroke="black" points="483,-465.5 724,-465.5 "/>
<text text-anchor="middle" x="603.5" y="-450.3" font-family="Times,serif" font-size="14.00" fill="#000000">num_users=1</text>
<polyline fill="none" stroke="black" points="483,-442.5 724,-442.5 "/>
<text text-anchor="middle" x="603.5" y="-427.3" font-family="Times,serif" font-size="14.00" fill="#000000">dtype=torch.float32</text>
<polyline fill="none" stroke="black" points="483,-419.5 724,-419.5 "/>
<text text-anchor="middle" x="603.5" y="-404.3" font-family="Times,serif" font-size="14.00" fill="#000000">shape=(30, 100)</text>
<polyline fill="none" stroke="black" points="483,-396.5 724,-396.5 "/>
<text text-anchor="middle" x="603.5" y="-381.3" font-family="Times,serif" font-size="14.00" fill="#000000">requires_grad=False</text>
<polyline fill="none" stroke="black" points="483,-373.5 724,-373.5 "/>
<text text-anchor="middle" x="603.5" y="-358.3" font-family="Times,serif" font-size="14.00" fill="#000000">stride=(100, 1)</text>
</g>
<!-- t_3&#45;&gt;t_5 -->
<g id="edge8" class="edge">
<title>t_3&#45;&gt;t_5</title>
<path fill="none" stroke="black" d="M613.81,-792.33C611.68,-720.21 608.7,-619.56 606.5,-544.91"/>
<polygon fill="black" stroke="black" points="609.98,-544.44 606.19,-534.55 602.99,-544.65 609.98,-544.44"/>
</g>
<!-- t_4&#45;&gt;mm_3 -->
<g id="edge9" class="edge">
<title>t_4&#45;&gt;mm_3</title>
<path fill="none" stroke="black" d="M282.5,-1508.21C282.5,-1499.52 282.5,-1490.68 282.5,-1481.9"/>
<polygon fill="black" stroke="black" points="286,-1481.64 282.5,-1471.64 279,-1481.64 286,-1481.64"/>
</g>
<!-- _to_copy_1 -->
<g id="node11" class="node">
<title>_to_copy_1</title>
<path fill="#ffe1ff" stroke="black" d="M85,-1013.5C85,-1013.5 480,-1013.5 480,-1013.5 486,-1013.5 492,-1019.5 492,-1025.5 492,-1025.5 492,-1238.5 492,-1238.5 492,-1244.5 486,-1250.5 480,-1250.5 480,-1250.5 85,-1250.5 85,-1250.5 79,-1250.5 73,-1244.5 73,-1238.5 73,-1238.5 73,-1025.5 73,-1025.5 73,-1019.5 79,-1013.5 85,-1013.5"/>
<text text-anchor="middle" x="282.5" y="-1235.3" font-family="Times,serif" font-size="14.00" fill="#000000">name=%_to_copy_1</text>
<polyline fill="none" stroke="black" points="73,-1227.5 492,-1227.5 "/>
<text text-anchor="middle" x="282.5" y="-1212.3" font-family="Times,serif" font-size="14.00" fill="#000000">op_code=call_function</text>
<polyline fill="none" stroke="black" points="73,-1204.5 492,-1204.5 "/>
<text text-anchor="middle" x="282.5" y="-1189.3" font-family="Times,serif" font-size="14.00" fill="#000000">target=torch.ops.aten._to_copy.default</text>
<polyline fill="none" stroke="black" points="73,-1181.5 492,-1181.5 "/>
<text text-anchor="start" x="81" y="-1166.3" font-family="Times,serif" font-size="14.00" fill="#000000">kwargs={</text>
<text text-anchor="middle" x="282.5" y="-1151.3" font-family="Times,serif" font-size="14.00" fill="#000000">dtype: torch.float32,layout: torch.strided,device: cuda:0,</text>
<text text-anchor="start" x="81" y="-1136.3" font-family="Times,serif" font-size="14.00" fill="#000000">}</text>
<polyline fill="none" stroke="black" points="73,-1128.5 492,-1128.5 "/>
<text text-anchor="middle" x="282.5" y="-1113.3" font-family="Times,serif" font-size="14.00" fill="#000000">num_users=1</text>
<polyline fill="none" stroke="black" points="73,-1105.5 492,-1105.5 "/>
<text text-anchor="middle" x="282.5" y="-1090.3" font-family="Times,serif" font-size="14.00" fill="#000000">dtype=torch.float32</text>
<polyline fill="none" stroke="black" points="73,-1082.5 492,-1082.5 "/>
<text text-anchor="middle" x="282.5" y="-1067.3" font-family="Times,serif" font-size="14.00" fill="#000000">shape=(20, 100)</text>
<polyline fill="none" stroke="black" points="73,-1059.5 492,-1059.5 "/>
<text text-anchor="middle" x="282.5" y="-1044.3" font-family="Times,serif" font-size="14.00" fill="#000000">requires_grad=False</text>
<polyline fill="none" stroke="black" points="73,-1036.5 492,-1036.5 "/>
<text text-anchor="middle" x="282.5" y="-1021.3" font-family="Times,serif" font-size="14.00" fill="#000000">stride=(100, 1)</text>
</g>
<!-- mm_3&#45;&gt;_to_copy_1 -->
<g id="edge10" class="edge">
<title>mm_3&#45;&gt;_to_copy_1</title>
<path fill="none" stroke="black" d="M282.5,-1287.43C282.5,-1278.71 282.5,-1269.75 282.5,-1260.76"/>
<polygon fill="black" stroke="black" points="286,-1260.61 282.5,-1250.61 279,-1260.61 286,-1260.61"/>
</g>
<!-- output -->
<g id="node16" class="node">
<title>output</title>
<path fill="PowderBlue" stroke="black" d="M407,-0.5C407,-0.5 516,-0.5 516,-0.5 522,-0.5 528,-6.5 528,-12.5 528,-12.5 528,-80.5 528,-80.5 528,-86.5 522,-92.5 516,-92.5 516,-92.5 407,-92.5 407,-92.5 401,-92.5 395,-86.5 395,-80.5 395,-80.5 395,-12.5 395,-12.5 395,-6.5 401,-0.5 407,-0.5"/>
<text text-anchor="middle" x="461.5" y="-77.3" font-family="Times,serif" font-size="14.00" fill="#000000">name=%output</text>
<polyline fill="none" stroke="black" points="395,-69.5 528,-69.5 "/>
<text text-anchor="middle" x="461.5" y="-54.3" font-family="Times,serif" font-size="14.00" fill="#000000">op_code=output</text>
<polyline fill="none" stroke="black" points="395,-46.5 528,-46.5 "/>
<text text-anchor="middle" x="461.5" y="-31.3" font-family="Times,serif" font-size="14.00" fill="#000000">target=output</text>
<polyline fill="none" stroke="black" points="395,-23.5 528,-23.5 "/>
<text text-anchor="middle" x="461.5" y="-8.3" font-family="Times,serif" font-size="14.00" fill="#000000">num_users=0</text>
</g>
<!-- t_5&#45;&gt;output -->
<g id="edge11" class="edge">
<title>t_5&#45;&gt;output</title>
<path fill="none" stroke="black" d="M586.84,-350.47C573.16,-286.58 550.6,-200.18 517.5,-129 513.17,-119.68 507.8,-110.26 502.11,-101.3"/>
<polygon fill="black" stroke="black" points="505,-99.32 496.59,-92.87 499.14,-103.15 505,-99.32"/>
</g>
<!-- t_6 -->
<g id="node12" class="node">
<title>t_6</title>
<path fill="#caff70" stroke="black" d="M199,-792.5C199,-792.5 416,-792.5 416,-792.5 422,-792.5 428,-798.5 428,-804.5 428,-804.5 428,-964.5 428,-964.5 428,-970.5 422,-976.5 416,-976.5 416,-976.5 199,-976.5 199,-976.5 193,-976.5 187,-970.5 187,-964.5 187,-964.5 187,-804.5 187,-804.5 187,-798.5 193,-792.5 199,-792.5"/>
<text text-anchor="middle" x="307.5" y="-961.3" font-family="Times,serif" font-size="14.00" fill="#000000">name=%t_6</text>
<polyline fill="none" stroke="black" points="187,-953.5 428,-953.5 "/>
<text text-anchor="middle" x="307.5" y="-938.3" font-family="Times,serif" font-size="14.00" fill="#000000">op_code=call_function</text>
<polyline fill="none" stroke="black" points="187,-930.5 428,-930.5 "/>
<text text-anchor="middle" x="307.5" y="-915.3" font-family="Times,serif" font-size="14.00" fill="#000000">target=torch.ops.aten.t.default</text>
<polyline fill="none" stroke="black" points="187,-907.5 428,-907.5 "/>
<text text-anchor="middle" x="307.5" y="-892.3" font-family="Times,serif" font-size="14.00" fill="#000000">num_users=1</text>
<polyline fill="none" stroke="black" points="187,-884.5 428,-884.5 "/>
<text text-anchor="middle" x="307.5" y="-869.3" font-family="Times,serif" font-size="14.00" fill="#000000">dtype=torch.float32</text>
<polyline fill="none" stroke="black" points="187,-861.5 428,-861.5 "/>
<text text-anchor="middle" x="307.5" y="-846.3" font-family="Times,serif" font-size="14.00" fill="#000000">shape=(100, 20)</text>
<polyline fill="none" stroke="black" points="187,-838.5 428,-838.5 "/>
<text text-anchor="middle" x="307.5" y="-823.3" font-family="Times,serif" font-size="14.00" fill="#000000">requires_grad=False</text>
<polyline fill="none" stroke="black" points="187,-815.5 428,-815.5 "/>
<text text-anchor="middle" x="307.5" y="-800.3" font-family="Times,serif" font-size="14.00" fill="#000000">stride=(1, 100)</text>
</g>
<!-- _to_copy_1&#45;&gt;t_6 -->
<g id="edge12" class="edge">
<title>_to_copy_1&#45;&gt;t_6</title>
<path fill="none" stroke="black" d="M294.49,-1013.28C295.39,-1004.44 296.29,-995.56 297.18,-986.83"/>
<polygon fill="black" stroke="black" points="300.69,-986.96 298.22,-976.66 293.72,-986.25 300.69,-986.96"/>
</g>
<!-- t_6&#45;&gt;mm_4 -->
<g id="edge13" class="edge">
<title>t_6&#45;&gt;mm_4</title>
<path fill="none" stroke="black" d="M307.5,-792.21C307.5,-783.52 307.5,-774.68 307.5,-765.9"/>
<polygon fill="black" stroke="black" points="311,-765.64 307.5,-755.64 304,-765.64 311,-765.64"/>
</g>
<!-- t_7 -->
<g id="node14" class="node">
<title>t_7</title>
<path fill="#caff70" stroke="black" d="M224,-350.5C224,-350.5 441,-350.5 441,-350.5 447,-350.5 453,-356.5 453,-362.5 453,-362.5 453,-522.5 453,-522.5 453,-528.5 447,-534.5 441,-534.5 441,-534.5 224,-534.5 224,-534.5 218,-534.5 212,-528.5 212,-522.5 212,-522.5 212,-362.5 212,-362.5 212,-356.5 218,-350.5 224,-350.5"/>
<text text-anchor="middle" x="332.5" y="-519.3" font-family="Times,serif" font-size="14.00" fill="#000000">name=%t_7</text>
<polyline fill="none" stroke="black" points="212,-511.5 453,-511.5 "/>
<text text-anchor="middle" x="332.5" y="-496.3" font-family="Times,serif" font-size="14.00" fill="#000000">op_code=call_function</text>
<polyline fill="none" stroke="black" points="212,-488.5 453,-488.5 "/>
<text text-anchor="middle" x="332.5" y="-473.3" font-family="Times,serif" font-size="14.00" fill="#000000">target=torch.ops.aten.t.default</text>
<polyline fill="none" stroke="black" points="212,-465.5 453,-465.5 "/>
<text text-anchor="middle" x="332.5" y="-450.3" font-family="Times,serif" font-size="14.00" fill="#000000">num_users=1</text>
<polyline fill="none" stroke="black" points="212,-442.5 453,-442.5 "/>
<text text-anchor="middle" x="332.5" y="-427.3" font-family="Times,serif" font-size="14.00" fill="#000000">dtype=torch.float32</text>
<polyline fill="none" stroke="black" points="212,-419.5 453,-419.5 "/>
<text text-anchor="middle" x="332.5" y="-404.3" font-family="Times,serif" font-size="14.00" fill="#000000">shape=(50, 100)</text>
<polyline fill="none" stroke="black" points="212,-396.5 453,-396.5 "/>
<text text-anchor="middle" x="332.5" y="-381.3" font-family="Times,serif" font-size="14.00" fill="#000000">requires_grad=False</text>
<polyline fill="none" stroke="black" points="212,-373.5 453,-373.5 "/>
<text text-anchor="middle" x="332.5" y="-358.3" font-family="Times,serif" font-size="14.00" fill="#000000">stride=(1, 50)</text>
</g>
<!-- mm_4&#45;&gt;t_7 -->
<g id="edge14" class="edge">
<title>mm_4&#45;&gt;t_7</title>
<path fill="none" stroke="black" d="M317.92,-571.21C318.92,-562.43 319.94,-553.48 320.96,-544.61"/>
<polygon fill="black" stroke="black" points="324.44,-544.97 322.1,-534.64 317.48,-544.18 324.44,-544.97"/>
</g>
<!-- t_8 -->
<g id="node15" class="node">
<title>t_8</title>
<path fill="#caff70" stroke="black" d="M279,-129.5C279,-129.5 496,-129.5 496,-129.5 502,-129.5 508,-135.5 508,-141.5 508,-141.5 508,-301.5 508,-301.5 508,-307.5 502,-313.5 496,-313.5 496,-313.5 279,-313.5 279,-313.5 273,-313.5 267,-307.5 267,-301.5 267,-301.5 267,-141.5 267,-141.5 267,-135.5 273,-129.5 279,-129.5"/>
<text text-anchor="middle" x="387.5" y="-298.3" font-family="Times,serif" font-size="14.00" fill="#000000">name=%t_8</text>
<polyline fill="none" stroke="black" points="267,-290.5 508,-290.5 "/>
<text text-anchor="middle" x="387.5" y="-275.3" font-family="Times,serif" font-size="14.00" fill="#000000">op_code=call_function</text>
<polyline fill="none" stroke="black" points="267,-267.5 508,-267.5 "/>
<text text-anchor="middle" x="387.5" y="-252.3" font-family="Times,serif" font-size="14.00" fill="#000000">target=torch.ops.aten.t.default</text>
<polyline fill="none" stroke="black" points="267,-244.5 508,-244.5 "/>
<text text-anchor="middle" x="387.5" y="-229.3" font-family="Times,serif" font-size="14.00" fill="#000000">num_users=1</text>
<polyline fill="none" stroke="black" points="267,-221.5 508,-221.5 "/>
<text text-anchor="middle" x="387.5" y="-206.3" font-family="Times,serif" font-size="14.00" fill="#000000">dtype=torch.float32</text>
<polyline fill="none" stroke="black" points="267,-198.5 508,-198.5 "/>
<text text-anchor="middle" x="387.5" y="-183.3" font-family="Times,serif" font-size="14.00" fill="#000000">shape=(100, 50)</text>
<polyline fill="none" stroke="black" points="267,-175.5 508,-175.5 "/>
<text text-anchor="middle" x="387.5" y="-160.3" font-family="Times,serif" font-size="14.00" fill="#000000">requires_grad=False</text>
<polyline fill="none" stroke="black" points="267,-152.5 508,-152.5 "/>
<text text-anchor="middle" x="387.5" y="-137.3" font-family="Times,serif" font-size="14.00" fill="#000000">stride=(50, 1)</text>
</g>
<!-- t_7&#45;&gt;t_8 -->
<g id="edge15" class="edge">
<title>t_7&#45;&gt;t_8</title>
<path fill="none" stroke="black" d="M355.43,-350.21C357.63,-341.43 359.88,-332.48 362.11,-323.61"/>
<polygon fill="black" stroke="black" points="365.57,-324.19 364.61,-313.64 358.78,-322.49 365.57,-324.19"/>
</g>
<!-- t_8&#45;&gt;output -->
<g id="edge16" class="edge">
<title>t_8&#45;&gt;output</title>
<path fill="none" stroke="black" d="M426.45,-129.44C430.44,-120.11 434.4,-110.86 438.14,-102.11"/>
<polygon fill="black" stroke="black" points="441.39,-103.41 442.11,-92.84 434.96,-100.65 441.39,-103.41"/>
</g>
</g>
</svg>
