<?xml version="1.0" encoding="UTF-8" standalone="no"?>
<!DOCTYPE svg PUBLIC "-//W3C//DTD SVG 1.1//EN"
 "http://www.w3.org/Graphics/SVG/1.1/DTD/svg11.dtd">
<!-- Generated by graphviz version 2.50.0 (0)
 -->
<!-- Title: fx_pipe Pages: 1 -->
<svg width="725pt" height="1259pt"
 viewBox="0.00 0.00 724.68 1259.00" xmlns="http://www.w3.org/2000/svg" xmlns:xlink="http://www.w3.org/1999/xlink">
<g id="graph0" class="graph" transform="scale(1 1) rotate(0) translate(4 1255)">
<title>fx_pipe</title>
<polygon fill="white" stroke="transparent" points="-4,4 -4,-1255 720.68,-1255 720.68,4 -4,4"/>
<!-- primals_1 -->
<g id="node1" class="node">
<title>primals_1</title>
<path fill="AliceBlue" stroke="black" d="M194,-1066.5C194,-1066.5 339,-1066.5 339,-1066.5 345,-1066.5 351,-1072.5 351,-1078.5 351,-1078.5 351,-1238.5 351,-1238.5 351,-1244.5 345,-1250.5 339,-1250.5 339,-1250.5 194,-1250.5 194,-1250.5 188,-1250.5 182,-1244.5 182,-1238.5 182,-1238.5 182,-1078.5 182,-1078.5 182,-1072.5 188,-1066.5 194,-1066.5"/>
<text text-anchor="middle" x="266.5" y="-1235.3" font-family="Times,serif" font-size="14.00" fill="#000000">name=%primals_1</text>
<polyline fill="none" stroke="black" points="182,-1227.5 351,-1227.5 "/>
<text text-anchor="middle" x="266.5" y="-1212.3" font-family="Times,serif" font-size="14.00" fill="#000000">op_code=placeholder</text>
<polyline fill="none" stroke="black" points="182,-1204.5 351,-1204.5 "/>
<text text-anchor="middle" x="266.5" y="-1189.3" font-family="Times,serif" font-size="14.00" fill="#000000">target=primals_1</text>
<polyline fill="none" stroke="black" points="182,-1181.5 351,-1181.5 "/>
<text text-anchor="middle" x="266.5" y="-1166.3" font-family="Times,serif" font-size="14.00" fill="#000000">num_users=1</text>
<polyline fill="none" stroke="black" points="182,-1158.5 351,-1158.5 "/>
<text text-anchor="middle" x="266.5" y="-1143.3" font-family="Times,serif" font-size="14.00" fill="#000000">dtype=torch.float32</text>
<polyline fill="none" stroke="black" points="182,-1135.5 351,-1135.5 "/>
<text text-anchor="middle" x="266.5" y="-1120.3" font-family="Times,serif" font-size="14.00" fill="#000000">shape=(100, 50)</text>
<polyline fill="none" stroke="black" points="182,-1112.5 351,-1112.5 "/>
<text text-anchor="middle" x="266.5" y="-1097.3" font-family="Times,serif" font-size="14.00" fill="#000000">requires_grad=True</text>
<polyline fill="none" stroke="black" points="182,-1089.5 351,-1089.5 "/>
<text text-anchor="middle" x="266.5" y="-1074.3" font-family="Times,serif" font-size="14.00" fill="#000000">stride=(50, 1)</text>
</g>
<!-- t -->
<g id="node4" class="node">
<title>t</title>
<path fill="#caff70" stroke="black" d="M158,-845.5C158,-845.5 375,-845.5 375,-845.5 381,-845.5 387,-851.5 387,-857.5 387,-857.5 387,-1017.5 387,-1017.5 387,-1023.5 381,-1029.5 375,-1029.5 375,-1029.5 158,-1029.5 158,-1029.5 152,-1029.5 146,-1023.5 146,-1017.5 146,-1017.5 146,-857.5 146,-857.5 146,-851.5 152,-845.5 158,-845.5"/>
<text text-anchor="middle" x="266.5" y="-1014.3" font-family="Times,serif" font-size="14.00" fill="#000000">name=%t</text>
<polyline fill="none" stroke="black" points="146,-1006.5 387,-1006.5 "/>
<text text-anchor="middle" x="266.5" y="-991.3" font-family="Times,serif" font-size="14.00" fill="#000000">op_code=call_function</text>
<polyline fill="none" stroke="black" points="146,-983.5 387,-983.5 "/>
<text text-anchor="middle" x="266.5" y="-968.3" font-family="Times,serif" font-size="14.00" fill="#000000">target=torch.ops.aten.t.default</text>
<polyline fill="none" stroke="black" points="146,-960.5 387,-960.5 "/>
<text text-anchor="middle" x="266.5" y="-945.3" font-family="Times,serif" font-size="14.00" fill="#000000">num_users=1</text>
<polyline fill="none" stroke="black" points="146,-937.5 387,-937.5 "/>
<text text-anchor="middle" x="266.5" y="-922.3" font-family="Times,serif" font-size="14.00" fill="#000000">dtype=torch.float32</text>
<polyline fill="none" stroke="black" points="146,-914.5 387,-914.5 "/>
<text text-anchor="middle" x="266.5" y="-899.3" font-family="Times,serif" font-size="14.00" fill="#000000">shape=(50, 100)</text>
<polyline fill="none" stroke="black" points="146,-891.5 387,-891.5 "/>
<text text-anchor="middle" x="266.5" y="-876.3" font-family="Times,serif" font-size="14.00" fill="#000000">requires_grad=False</text>
<polyline fill="none" stroke="black" points="146,-868.5 387,-868.5 "/>
<text text-anchor="middle" x="266.5" y="-853.3" font-family="Times,serif" font-size="14.00" fill="#000000">stride=(1, 50)</text>
</g>
<!-- primals_1&#45;&gt;t -->
<g id="edge1" class="edge">
<title>primals_1&#45;&gt;t</title>
<path fill="none" stroke="black" d="M266.5,-1066.21C266.5,-1057.52 266.5,-1048.68 266.5,-1039.9"/>
<polygon fill="black" stroke="black" points="270,-1039.64 266.5,-1029.64 263,-1039.64 270,-1039.64"/>
</g>
<!-- primals_2 -->
<g id="node2" class="node">
<title>primals_2</title>
<path fill="AliceBlue" stroke="black" d="M485,-624.5C485,-624.5 630,-624.5 630,-624.5 636,-624.5 642,-630.5 642,-636.5 642,-636.5 642,-796.5 642,-796.5 642,-802.5 636,-808.5 630,-808.5 630,-808.5 485,-808.5 485,-808.5 479,-808.5 473,-802.5 473,-796.5 473,-796.5 473,-636.5 473,-636.5 473,-630.5 479,-624.5 485,-624.5"/>
<text text-anchor="middle" x="557.5" y="-793.3" font-family="Times,serif" font-size="14.00" fill="#000000">name=%primals_2</text>
<polyline fill="none" stroke="black" points="473,-785.5 642,-785.5 "/>
<text text-anchor="middle" x="557.5" y="-770.3" font-family="Times,serif" font-size="14.00" fill="#000000">op_code=placeholder</text>
<polyline fill="none" stroke="black" points="473,-762.5 642,-762.5 "/>
<text text-anchor="middle" x="557.5" y="-747.3" font-family="Times,serif" font-size="14.00" fill="#000000">target=primals_2</text>
<polyline fill="none" stroke="black" points="473,-739.5 642,-739.5 "/>
<text text-anchor="middle" x="557.5" y="-724.3" font-family="Times,serif" font-size="14.00" fill="#000000">num_users=1</text>
<polyline fill="none" stroke="black" points="473,-716.5 642,-716.5 "/>
<text text-anchor="middle" x="557.5" y="-701.3" font-family="Times,serif" font-size="14.00" fill="#000000">dtype=torch.float32</text>
<polyline fill="none" stroke="black" points="473,-693.5 642,-693.5 "/>
<text text-anchor="middle" x="557.5" y="-678.3" font-family="Times,serif" font-size="14.00" fill="#000000">shape=(30, 100)</text>
<polyline fill="none" stroke="black" points="473,-670.5 642,-670.5 "/>
<text text-anchor="middle" x="557.5" y="-655.3" font-family="Times,serif" font-size="14.00" fill="#000000">requires_grad=True</text>
<polyline fill="none" stroke="black" points="473,-647.5 642,-647.5 "/>
<text text-anchor="middle" x="557.5" y="-632.3" font-family="Times,serif" font-size="14.00" fill="#000000">stride=(100, 1)</text>
</g>
<!-- t_1 -->
<g id="node7" class="node">
<title>t_1</title>
<path fill="#caff70" stroke="black" d="M449,-377C449,-377 666,-377 666,-377 672,-377 678,-383 678,-389 678,-389 678,-549 678,-549 678,-555 672,-561 666,-561 666,-561 449,-561 449,-561 443,-561 437,-555 437,-549 437,-549 437,-389 437,-389 437,-383 443,-377 449,-377"/>
<text text-anchor="middle" x="557.5" y="-545.8" font-family="Times,serif" font-size="14.00" fill="#000000">name=%t_1</text>
<polyline fill="none" stroke="black" points="437,-538 678,-538 "/>
<text text-anchor="middle" x="557.5" y="-522.8" font-family="Times,serif" font-size="14.00" fill="#000000">op_code=call_function</text>
<polyline fill="none" stroke="black" points="437,-515 678,-515 "/>
<text text-anchor="middle" x="557.5" y="-499.8" font-family="Times,serif" font-size="14.00" fill="#000000">target=torch.ops.aten.t.default</text>
<polyline fill="none" stroke="black" points="437,-492 678,-492 "/>
<text text-anchor="middle" x="557.5" y="-476.8" font-family="Times,serif" font-size="14.00" fill="#000000">num_users=2</text>
<polyline fill="none" stroke="black" points="437,-469 678,-469 "/>
<text text-anchor="middle" x="557.5" y="-453.8" font-family="Times,serif" font-size="14.00" fill="#000000">dtype=torch.float32</text>
<polyline fill="none" stroke="black" points="437,-446 678,-446 "/>
<text text-anchor="middle" x="557.5" y="-430.8" font-family="Times,serif" font-size="14.00" fill="#000000">shape=(100, 30)</text>
<polyline fill="none" stroke="black" points="437,-423 678,-423 "/>
<text text-anchor="middle" x="557.5" y="-407.8" font-family="Times,serif" font-size="14.00" fill="#000000">requires_grad=False</text>
<polyline fill="none" stroke="black" points="437,-400 678,-400 "/>
<text text-anchor="middle" x="557.5" y="-384.8" font-family="Times,serif" font-size="14.00" fill="#000000">stride=(1, 100)</text>
</g>
<!-- primals_2&#45;&gt;t_1 -->
<g id="edge2" class="edge">
<title>primals_2&#45;&gt;t_1</title>
<path fill="none" stroke="black" d="M557.5,-624.43C557.5,-607.21 557.5,-589.09 557.5,-571.57"/>
<polygon fill="black" stroke="black" points="561,-571.33 557.5,-561.33 554,-571.33 561,-571.33"/>
</g>
<!-- primals_3 -->
<g id="node3" class="node">
<title>primals_3</title>
<path fill="AliceBlue" stroke="black" d="M497,-845.5C497,-845.5 642,-845.5 642,-845.5 648,-845.5 654,-851.5 654,-857.5 654,-857.5 654,-1017.5 654,-1017.5 654,-1023.5 648,-1029.5 642,-1029.5 642,-1029.5 497,-1029.5 497,-1029.5 491,-1029.5 485,-1023.5 485,-1017.5 485,-1017.5 485,-857.5 485,-857.5 485,-851.5 491,-845.5 497,-845.5"/>
<text text-anchor="middle" x="569.5" y="-1014.3" font-family="Times,serif" font-size="14.00" fill="#000000">name=%primals_3</text>
<polyline fill="none" stroke="black" points="485,-1006.5 654,-1006.5 "/>
<text text-anchor="middle" x="569.5" y="-991.3" font-family="Times,serif" font-size="14.00" fill="#000000">op_code=placeholder</text>
<polyline fill="none" stroke="black" points="485,-983.5 654,-983.5 "/>
<text text-anchor="middle" x="569.5" y="-968.3" font-family="Times,serif" font-size="14.00" fill="#000000">target=primals_3</text>
<polyline fill="none" stroke="black" points="485,-960.5 654,-960.5 "/>
<text text-anchor="middle" x="569.5" y="-945.3" font-family="Times,serif" font-size="14.00" fill="#000000">num_users=2</text>
<polyline fill="none" stroke="black" points="485,-937.5 654,-937.5 "/>
<text text-anchor="middle" x="569.5" y="-922.3" font-family="Times,serif" font-size="14.00" fill="#000000">dtype=torch.float32</text>
<polyline fill="none" stroke="black" points="485,-914.5 654,-914.5 "/>
<text text-anchor="middle" x="569.5" y="-899.3" font-family="Times,serif" font-size="14.00" fill="#000000">shape=(20, 50)</text>
<polyline fill="none" stroke="black" points="485,-891.5 654,-891.5 "/>
<text text-anchor="middle" x="569.5" y="-876.3" font-family="Times,serif" font-size="14.00" fill="#000000">requires_grad=False</text>
<polyline fill="none" stroke="black" points="485,-868.5 654,-868.5 "/>
<text text-anchor="middle" x="569.5" y="-853.3" font-family="Times,serif" font-size="14.00" fill="#000000">stride=(50, 1)</text>
</g>
<!-- mm -->
<g id="node5" class="node">
<title>mm</title>
<path fill="#ffdab9" stroke="black" d="M147.5,-624.5C147.5,-624.5 385.5,-624.5 385.5,-624.5 391.5,-624.5 397.5,-630.5 397.5,-636.5 397.5,-636.5 397.5,-796.5 397.5,-796.5 397.5,-802.5 391.5,-808.5 385.5,-808.5 385.5,-808.5 147.5,-808.5 147.5,-808.5 141.5,-808.5 135.5,-802.5 135.5,-796.5 135.5,-796.5 135.5,-636.5 135.5,-636.5 135.5,-630.5 141.5,-624.5 147.5,-624.5"/>
<text text-anchor="middle" x="266.5" y="-793.3" font-family="Times,serif" font-size="14.00" fill="#000000">name=%mm</text>
<polyline fill="none" stroke="black" points="135.5,-785.5 397.5,-785.5 "/>
<text text-anchor="middle" x="266.5" y="-770.3" font-family="Times,serif" font-size="14.00" fill="#000000">op_code=call_function</text>
<polyline fill="none" stroke="black" points="135.5,-762.5 397.5,-762.5 "/>
<text text-anchor="middle" x="266.5" y="-747.3" font-family="Times,serif" font-size="14.00" fill="#000000">target=torch.ops.aten.mm.default</text>
<polyline fill="none" stroke="black" points="135.5,-739.5 397.5,-739.5 "/>
<text text-anchor="middle" x="266.5" y="-724.3" font-family="Times,serif" font-size="14.00" fill="#000000">num_users=1</text>
<polyline fill="none" stroke="black" points="135.5,-716.5 397.5,-716.5 "/>
<text text-anchor="middle" x="266.5" y="-701.3" font-family="Times,serif" font-size="14.00" fill="#000000">dtype=torch.float32</text>
<polyline fill="none" stroke="black" points="135.5,-693.5 397.5,-693.5 "/>
<text text-anchor="middle" x="266.5" y="-678.3" font-family="Times,serif" font-size="14.00" fill="#000000">shape=(20, 100)</text>
<polyline fill="none" stroke="black" points="135.5,-670.5 397.5,-670.5 "/>
<text text-anchor="middle" x="266.5" y="-655.3" font-family="Times,serif" font-size="14.00" fill="#000000">requires_grad=False</text>
<polyline fill="none" stroke="black" points="135.5,-647.5 397.5,-647.5 "/>
<text text-anchor="middle" x="266.5" y="-632.3" font-family="Times,serif" font-size="14.00" fill="#000000">stride=(100, 1)</text>
</g>
<!-- primals_3&#45;&gt;mm -->
<g id="edge3" class="edge">
<title>primals_3&#45;&gt;mm</title>
<path fill="none" stroke="black" d="M484.69,-875.21C458.72,-856.43 429.48,-835.3 401.05,-814.75"/>
<polygon fill="black" stroke="black" points="402.81,-811.7 392.65,-808.68 398.71,-817.37 402.81,-811.7"/>
</g>
<!-- output -->
<g id="node9" class="node">
<title>output</title>
<path fill="PowderBlue" stroke="black" d="M423,-0.5C423,-0.5 532,-0.5 532,-0.5 538,-0.5 544,-6.5 544,-12.5 544,-12.5 544,-80.5 544,-80.5 544,-86.5 538,-92.5 532,-92.5 532,-92.5 423,-92.5 423,-92.5 417,-92.5 411,-86.5 411,-80.5 411,-80.5 411,-12.5 411,-12.5 411,-6.5 417,-0.5 423,-0.5"/>
<text text-anchor="middle" x="477.5" y="-77.3" font-family="Times,serif" font-size="14.00" fill="#000000">name=%output</text>
<polyline fill="none" stroke="black" points="411,-69.5 544,-69.5 "/>
<text text-anchor="middle" x="477.5" y="-54.3" font-family="Times,serif" font-size="14.00" fill="#000000">op_code=output</text>
<polyline fill="none" stroke="black" points="411,-46.5 544,-46.5 "/>
<text text-anchor="middle" x="477.5" y="-31.3" font-family="Times,serif" font-size="14.00" fill="#000000">target=output</text>
<polyline fill="none" stroke="black" points="411,-23.5 544,-23.5 "/>
<text text-anchor="middle" x="477.5" y="-8.3" font-family="Times,serif" font-size="14.00" fill="#000000">num_users=0</text>
</g>
<!-- primals_3&#45;&gt;output -->
<g id="edge4" class="edge">
<title>primals_3&#45;&gt;output</title>
<path fill="none" stroke="black" d="M633.38,-845.5C639.9,-833.59 645.84,-821.25 650.5,-809 723.3,-617.76 736.52,-548.42 686.5,-350 659.23,-241.83 636.29,-216.82 567.5,-129 559.52,-118.82 550.2,-108.83 540.64,-99.54"/>
<polygon fill="black" stroke="black" points="542.96,-96.92 533.29,-92.57 538.14,-101.99 542.96,-96.92"/>
</g>
<!-- t&#45;&gt;mm -->
<g id="edge5" class="edge">
<title>t&#45;&gt;mm</title>
<path fill="none" stroke="black" d="M266.5,-845.21C266.5,-836.52 266.5,-827.68 266.5,-818.9"/>
<polygon fill="black" stroke="black" points="270,-818.64 266.5,-808.64 263,-818.64 270,-818.64"/>
</g>
<!-- _to_copy -->
<g id="node6" class="node">
<title>_to_copy</title>
<path fill="#ffe1ff" stroke="black" d="M12,-350.5C12,-350.5 407,-350.5 407,-350.5 413,-350.5 419,-356.5 419,-362.5 419,-362.5 419,-575.5 419,-575.5 419,-581.5 413,-587.5 407,-587.5 407,-587.5 12,-587.5 12,-587.5 6,-587.5 0,-581.5 0,-575.5 0,-575.5 0,-362.5 0,-362.5 0,-356.5 6,-350.5 12,-350.5"/>
<text text-anchor="middle" x="209.5" y="-572.3" font-family="Times,serif" font-size="14.00" fill="#000000">name=%_to_copy</text>
<polyline fill="none" stroke="black" points="0,-564.5 419,-564.5 "/>
<text text-anchor="middle" x="209.5" y="-549.3" font-family="Times,serif" font-size="14.00" fill="#000000">op_code=call_function</text>
<polyline fill="none" stroke="black" points="0,-541.5 419,-541.5 "/>
<text text-anchor="middle" x="209.5" y="-526.3" font-family="Times,serif" font-size="14.00" fill="#000000">target=torch.ops.aten._to_copy.default</text>
<polyline fill="none" stroke="black" points="0,-518.5 419,-518.5 "/>
<text text-anchor="start" x="8" y="-503.3" font-family="Times,serif" font-size="14.00" fill="#000000">kwargs={</text>
<text text-anchor="middle" x="209.5" y="-488.3" font-family="Times,serif" font-size="14.00" fill="#000000">dtype: torch.float32,layout: torch.strided,device: cuda:1,</text>
<text text-anchor="start" x="8" y="-473.3" font-family="Times,serif" font-size="14.00" fill="#000000">}</text>
<polyline fill="none" stroke="black" points="0,-465.5 419,-465.5 "/>
<text text-anchor="middle" x="209.5" y="-450.3" font-family="Times,serif" font-size="14.00" fill="#000000">num_users=2</text>
<polyline fill="none" stroke="black" points="0,-442.5 419,-442.5 "/>
<text text-anchor="middle" x="209.5" y="-427.3" font-family="Times,serif" font-size="14.00" fill="#000000">dtype=torch.float32</text>
<polyline fill="none" stroke="black" points="0,-419.5 419,-419.5 "/>
<text text-anchor="middle" x="209.5" y="-404.3" font-family="Times,serif" font-size="14.00" fill="#000000">shape=(20, 100)</text>
<polyline fill="none" stroke="black" points="0,-396.5 419,-396.5 "/>
<text text-anchor="middle" x="209.5" y="-381.3" font-family="Times,serif" font-size="14.00" fill="#000000">requires_grad=False</text>
<polyline fill="none" stroke="black" points="0,-373.5 419,-373.5 "/>
<text text-anchor="middle" x="209.5" y="-358.3" font-family="Times,serif" font-size="14.00" fill="#000000">stride=(100, 1)</text>
</g>
<!-- mm&#45;&gt;_to_copy -->
<g id="edge6" class="edge">
<title>mm&#45;&gt;_to_copy</title>
<path fill="none" stroke="black" d="M245.36,-624.43C243.31,-615.62 241.21,-606.56 239.1,-597.47"/>
<polygon fill="black" stroke="black" points="242.48,-596.56 236.81,-587.61 235.66,-598.14 242.48,-596.56"/>
</g>
<!-- mm_1 -->
<g id="node8" class="node">
<title>mm_1</title>
<path fill="#ffdab9" stroke="black" d="M279.5,-129.5C279.5,-129.5 517.5,-129.5 517.5,-129.5 523.5,-129.5 529.5,-135.5 529.5,-141.5 529.5,-141.5 529.5,-301.5 529.5,-301.5 529.5,-307.5 523.5,-313.5 517.5,-313.5 517.5,-313.5 279.5,-313.5 279.5,-313.5 273.5,-313.5 267.5,-307.5 267.5,-301.5 267.5,-301.5 267.5,-141.5 267.5,-141.5 267.5,-135.5 273.5,-129.5 279.5,-129.5"/>
<text text-anchor="middle" x="398.5" y="-298.3" font-family="Times,serif" font-size="14.00" fill="#000000">name=%mm_1</text>
<polyline fill="none" stroke="black" points="267.5,-290.5 529.5,-290.5 "/>
<text text-anchor="middle" x="398.5" y="-275.3" font-family="Times,serif" font-size="14.00" fill="#000000">op_code=call_function</text>
<polyline fill="none" stroke="black" points="267.5,-267.5 529.5,-267.5 "/>
<text text-anchor="middle" x="398.5" y="-252.3" font-family="Times,serif" font-size="14.00" fill="#000000">target=torch.ops.aten.mm.default</text>
<polyline fill="none" stroke="black" points="267.5,-244.5 529.5,-244.5 "/>
<text text-anchor="middle" x="398.5" y="-229.3" font-family="Times,serif" font-size="14.00" fill="#000000">num_users=1</text>
<polyline fill="none" stroke="black" points="267.5,-221.5 529.5,-221.5 "/>
<text text-anchor="middle" x="398.5" y="-206.3" font-family="Times,serif" font-size="14.00" fill="#000000">dtype=torch.float32</text>
<polyline fill="none" stroke="black" points="267.5,-198.5 529.5,-198.5 "/>
<text text-anchor="middle" x="398.5" y="-183.3" font-family="Times,serif" font-size="14.00" fill="#000000">shape=(20, 30)</text>
<polyline fill="none" stroke="black" points="267.5,-175.5 529.5,-175.5 "/>
<text text-anchor="middle" x="398.5" y="-160.3" font-family="Times,serif" font-size="14.00" fill="#000000">requires_grad=False</text>
<polyline fill="none" stroke="black" points="267.5,-152.5 529.5,-152.5 "/>
<text text-anchor="middle" x="398.5" y="-137.3" font-family="Times,serif" font-size="14.00" fill="#000000">stride=(30, 1)</text>
</g>
<!-- _to_copy&#45;&gt;mm_1 -->
<g id="edge7" class="edge">
<title>_to_copy&#45;&gt;mm_1</title>
<path fill="none" stroke="black" d="M300.12,-350.28C307.45,-340.77 314.81,-331.21 322.02,-321.84"/>
<polygon fill="black" stroke="black" points="324.99,-323.72 328.32,-313.66 319.45,-319.45 324.99,-323.72"/>
</g>
<!-- _to_copy&#45;&gt;output -->
<g id="edge8" class="edge">
<title>_to_copy&#45;&gt;output</title>
<path fill="none" stroke="black" d="M198.16,-350.24C197.63,-278.97 209.01,-190.31 258.5,-129 293.05,-86.19 352.45,-65.87 400.67,-56.22"/>
<polygon fill="black" stroke="black" points="401.6,-59.6 410.78,-54.32 400.31,-52.73 401.6,-59.6"/>
</g>
<!-- t_1&#45;&gt;mm_1 -->
<g id="edge9" class="edge">
<title>t_1&#45;&gt;mm_1</title>
<path fill="none" stroke="black" d="M498.52,-376.93C487.05,-359.23 474.97,-340.57 463.33,-322.59"/>
<polygon fill="black" stroke="black" points="466.02,-320.32 457.65,-313.83 460.15,-324.12 466.02,-320.32"/>
</g>
<!-- t_1&#45;&gt;output -->
<g id="edge10" class="edge">
<title>t_1&#45;&gt;output</title>
<path fill="none" stroke="black" d="M566.41,-376.64C569.94,-306.73 567.65,-209.04 538.5,-129 534.97,-119.31 529.88,-109.8 524.13,-100.9"/>
<polygon fill="black" stroke="black" points="526.96,-98.85 518.43,-92.56 521.18,-102.79 526.96,-98.85"/>
</g>
<!-- mm_1&#45;&gt;output -->
<g id="edge11" class="edge">
<title>mm_1&#45;&gt;output</title>
<path fill="none" stroke="black" d="M440.08,-129.44C444.34,-120.11 448.57,-110.86 452.56,-102.11"/>
<polygon fill="black" stroke="black" points="455.83,-103.39 456.8,-92.84 449.46,-100.48 455.83,-103.39"/>
</g>
</g>
</svg>
