<?xml version="1.0" encoding="UTF-8" standalone="no"?>
<!DOCTYPE svg PUBLIC "-//W3C//DTD SVG 1.1//EN"
 "http://www.w3.org/Graphics/SVG/1.1/DTD/svg11.dtd">
<!-- Generated by graphviz version 2.50.0 (0)
 -->
<!-- Title: gpt2 Pages: 1 -->
<svg width="1355pt" height="1335pt"
 viewBox="0.00 0.00 1355.00 1335.00" xmlns="http://www.w3.org/2000/svg" xmlns:xlink="http://www.w3.org/1999/xlink">
<g id="graph0" class="graph" transform="scale(1 1) rotate(0) translate(4 1331)">
<title>gpt2</title>
<polygon fill="white" stroke="transparent" points="-4,4 -4,-1331 1351,-1331 1351,4 -4,4"/>
<!-- arg0_1 -->
<g id="node1" class="node">
<title>arg0_1</title>
<path fill="AliceBlue" stroke="black" d="M12,-1234.5C12,-1234.5 157,-1234.5 157,-1234.5 163,-1234.5 169,-1240.5 169,-1246.5 169,-1246.5 169,-1314.5 169,-1314.5 169,-1320.5 163,-1326.5 157,-1326.5 157,-1326.5 12,-1326.5 12,-1326.5 6,-1326.5 0,-1320.5 0,-1314.5 0,-1314.5 0,-1246.5 0,-1246.5 0,-1240.5 6,-1234.5 12,-1234.5"/>
<text text-anchor="middle" x="84.5" y="-1311.3" font-family="Times,serif" font-size="14.00" fill="#000000">name=%arg0_1</text>
<polyline fill="none" stroke="black" points="0,-1303.5 169,-1303.5 "/>
<text text-anchor="middle" x="84.5" y="-1288.3" font-family="Times,serif" font-size="14.00" fill="#000000">op_code=placeholder</text>
<polyline fill="none" stroke="black" points="0,-1280.5 169,-1280.5 "/>
<text text-anchor="middle" x="84.5" y="-1265.3" font-family="Times,serif" font-size="14.00" fill="#000000">target=arg0_1</text>
<polyline fill="none" stroke="black" points="0,-1257.5 169,-1257.5 "/>
<text text-anchor="middle" x="84.5" y="-1242.3" font-family="Times,serif" font-size="14.00" fill="#000000">num_users=0</text>
</g>
<!-- _tensor_constant0 -->
<g id="node2" class="node">
<title>_tensor_constant0</title>
<path fill="LightGrey" stroke="black" d="M199,-1234.5C199,-1234.5 386,-1234.5 386,-1234.5 392,-1234.5 398,-1240.5 398,-1246.5 398,-1246.5 398,-1314.5 398,-1314.5 398,-1320.5 392,-1326.5 386,-1326.5 386,-1326.5 199,-1326.5 199,-1326.5 193,-1326.5 187,-1320.5 187,-1314.5 187,-1314.5 187,-1246.5 187,-1246.5 187,-1240.5 193,-1234.5 199,-1234.5"/>
<text text-anchor="middle" x="292.5" y="-1311.3" font-family="Times,serif" font-size="14.00" fill="#000000">name=%_tensor_constant0</text>
<polyline fill="none" stroke="black" points="187,-1303.5 398,-1303.5 "/>
<text text-anchor="middle" x="292.5" y="-1288.3" font-family="Times,serif" font-size="14.00" fill="#000000">op_code=get_attr</text>
<polyline fill="none" stroke="black" points="187,-1280.5 398,-1280.5 "/>
<text text-anchor="middle" x="292.5" y="-1265.3" font-family="Times,serif" font-size="14.00" fill="#000000">target=_tensor_constant0</text>
<polyline fill="none" stroke="black" points="187,-1257.5 398,-1257.5 "/>
<text text-anchor="middle" x="292.5" y="-1242.3" font-family="Times,serif" font-size="14.00" fill="#000000">num_users=1</text>
</g>
<!-- clone -->
<g id="node3" class="node">
<title>clone</title>
<path fill="LightSkyBlue" stroke="black" d="M168.5,-1013.5C168.5,-1013.5 416.5,-1013.5 416.5,-1013.5 422.5,-1013.5 428.5,-1019.5 428.5,-1025.5 428.5,-1025.5 428.5,-1185.5 428.5,-1185.5 428.5,-1191.5 422.5,-1197.5 416.5,-1197.5 416.5,-1197.5 168.5,-1197.5 168.5,-1197.5 162.5,-1197.5 156.5,-1191.5 156.5,-1185.5 156.5,-1185.5 156.5,-1025.5 156.5,-1025.5 156.5,-1019.5 162.5,-1013.5 168.5,-1013.5"/>
<text text-anchor="middle" x="292.5" y="-1182.3" font-family="Times,serif" font-size="14.00" fill="#000000">name=%clone</text>
<polyline fill="none" stroke="black" points="156.5,-1174.5 428.5,-1174.5 "/>
<text text-anchor="middle" x="292.5" y="-1159.3" font-family="Times,serif" font-size="14.00" fill="#000000">op_code=call_function</text>
<polyline fill="none" stroke="black" points="156.5,-1151.5 428.5,-1151.5 "/>
<text text-anchor="middle" x="292.5" y="-1136.3" font-family="Times,serif" font-size="14.00" fill="#000000">target=torch.ops.aten.clone.default</text>
<polyline fill="none" stroke="black" points="156.5,-1128.5 428.5,-1128.5 "/>
<text text-anchor="middle" x="292.5" y="-1113.3" font-family="Times,serif" font-size="14.00" fill="#000000">num_users=1</text>
<polyline fill="none" stroke="black" points="156.5,-1105.5 428.5,-1105.5 "/>
<text text-anchor="middle" x="292.5" y="-1090.3" font-family="Times,serif" font-size="14.00" fill="#000000">dtype=torch.float32</text>
<polyline fill="none" stroke="black" points="156.5,-1082.5 428.5,-1082.5 "/>
<text text-anchor="middle" x="292.5" y="-1067.3" font-family="Times,serif" font-size="14.00" fill="#000000">shape=(20, 50)</text>
<polyline fill="none" stroke="black" points="156.5,-1059.5 428.5,-1059.5 "/>
<text text-anchor="middle" x="292.5" y="-1044.3" font-family="Times,serif" font-size="14.00" fill="#000000">requires_grad=False</text>
<polyline fill="none" stroke="black" points="156.5,-1036.5 428.5,-1036.5 "/>
<text text-anchor="middle" x="292.5" y="-1021.3" font-family="Times,serif" font-size="14.00" fill="#000000">stride=(50, 1)</text>
</g>
<!-- _tensor_constant0&#45;&gt;clone -->
<g id="edge1" class="edge">
<title>_tensor_constant0&#45;&gt;clone</title>
<path fill="none" stroke="black" d="M292.5,-1234.5C292.5,-1226.12 292.5,-1217.05 292.5,-1207.76"/>
<polygon fill="black" stroke="black" points="296,-1207.6 292.5,-1197.6 289,-1207.6 296,-1207.6"/>
</g>
<!-- detach -->
<g id="node4" class="node">
<title>detach</title>
<path fill="#98f5ff" stroke="black" d="M163,-792.5C163,-792.5 422,-792.5 422,-792.5 428,-792.5 434,-798.5 434,-804.5 434,-804.5 434,-964.5 434,-964.5 434,-970.5 428,-976.5 422,-976.5 422,-976.5 163,-976.5 163,-976.5 157,-976.5 151,-970.5 151,-964.5 151,-964.5 151,-804.5 151,-804.5 151,-798.5 157,-792.5 163,-792.5"/>
<text text-anchor="middle" x="292.5" y="-961.3" font-family="Times,serif" font-size="14.00" fill="#000000">name=%detach</text>
<polyline fill="none" stroke="black" points="151,-953.5 434,-953.5 "/>
<text text-anchor="middle" x="292.5" y="-938.3" font-family="Times,serif" font-size="14.00" fill="#000000">op_code=call_function</text>
<polyline fill="none" stroke="black" points="151,-930.5 434,-930.5 "/>
<text text-anchor="middle" x="292.5" y="-915.3" font-family="Times,serif" font-size="14.00" fill="#000000">target=torch.ops.aten.detach.default</text>
<polyline fill="none" stroke="black" points="151,-907.5 434,-907.5 "/>
<text text-anchor="middle" x="292.5" y="-892.3" font-family="Times,serif" font-size="14.00" fill="#000000">num_users=1</text>
<polyline fill="none" stroke="black" points="151,-884.5 434,-884.5 "/>
<text text-anchor="middle" x="292.5" y="-869.3" font-family="Times,serif" font-size="14.00" fill="#000000">dtype=torch.float32</text>
<polyline fill="none" stroke="black" points="151,-861.5 434,-861.5 "/>
<text text-anchor="middle" x="292.5" y="-846.3" font-family="Times,serif" font-size="14.00" fill="#000000">shape=(20, 50)</text>
<polyline fill="none" stroke="black" points="151,-838.5 434,-838.5 "/>
<text text-anchor="middle" x="292.5" y="-823.3" font-family="Times,serif" font-size="14.00" fill="#000000">requires_grad=False</text>
<polyline fill="none" stroke="black" points="151,-815.5 434,-815.5 "/>
<text text-anchor="middle" x="292.5" y="-800.3" font-family="Times,serif" font-size="14.00" fill="#000000">stride=(50, 1)</text>
</g>
<!-- clone&#45;&gt;detach -->
<g id="edge2" class="edge">
<title>clone&#45;&gt;detach</title>
<path fill="none" stroke="black" d="M292.5,-1013.21C292.5,-1004.52 292.5,-995.68 292.5,-986.9"/>
<polygon fill="black" stroke="black" points="296,-986.64 292.5,-976.64 289,-986.64 296,-986.64"/>
</g>
<!-- detach_1 -->
<g id="node5" class="node">
<title>detach_1</title>
<path fill="#98f5ff" stroke="black" d="M163,-571.5C163,-571.5 422,-571.5 422,-571.5 428,-571.5 434,-577.5 434,-583.5 434,-583.5 434,-743.5 434,-743.5 434,-749.5 428,-755.5 422,-755.5 422,-755.5 163,-755.5 163,-755.5 157,-755.5 151,-749.5 151,-743.5 151,-743.5 151,-583.5 151,-583.5 151,-577.5 157,-571.5 163,-571.5"/>
<text text-anchor="middle" x="292.5" y="-740.3" font-family="Times,serif" font-size="14.00" fill="#000000">name=%detach_1</text>
<polyline fill="none" stroke="black" points="151,-732.5 434,-732.5 "/>
<text text-anchor="middle" x="292.5" y="-717.3" font-family="Times,serif" font-size="14.00" fill="#000000">op_code=call_function</text>
<polyline fill="none" stroke="black" points="151,-709.5 434,-709.5 "/>
<text text-anchor="middle" x="292.5" y="-694.3" font-family="Times,serif" font-size="14.00" fill="#000000">target=torch.ops.aten.detach.default</text>
<polyline fill="none" stroke="black" points="151,-686.5 434,-686.5 "/>
<text text-anchor="middle" x="292.5" y="-671.3" font-family="Times,serif" font-size="14.00" fill="#000000">num_users=1</text>
<polyline fill="none" stroke="black" points="151,-663.5 434,-663.5 "/>
<text text-anchor="middle" x="292.5" y="-648.3" font-family="Times,serif" font-size="14.00" fill="#000000">dtype=torch.float32</text>
<polyline fill="none" stroke="black" points="151,-640.5 434,-640.5 "/>
<text text-anchor="middle" x="292.5" y="-625.3" font-family="Times,serif" font-size="14.00" fill="#000000">shape=(20, 50)</text>
<polyline fill="none" stroke="black" points="151,-617.5 434,-617.5 "/>
<text text-anchor="middle" x="292.5" y="-602.3" font-family="Times,serif" font-size="14.00" fill="#000000">requires_grad=False</text>
<polyline fill="none" stroke="black" points="151,-594.5 434,-594.5 "/>
<text text-anchor="middle" x="292.5" y="-579.3" font-family="Times,serif" font-size="14.00" fill="#000000">stride=(50, 1)</text>
</g>
<!-- detach&#45;&gt;detach_1 -->
<g id="edge3" class="edge">
<title>detach&#45;&gt;detach_1</title>
<path fill="none" stroke="black" d="M292.5,-792.21C292.5,-783.52 292.5,-774.68 292.5,-765.9"/>
<polygon fill="black" stroke="black" points="296,-765.64 292.5,-755.64 289,-765.64 296,-765.64"/>
</g>
<!-- addmm -->
<g id="node9" class="node">
<title>addmm</title>
<path fill="#ffe1ff" stroke="black" d="M535.5,-350.5C535.5,-350.5 799.5,-350.5 799.5,-350.5 805.5,-350.5 811.5,-356.5 811.5,-362.5 811.5,-362.5 811.5,-522.5 811.5,-522.5 811.5,-528.5 805.5,-534.5 799.5,-534.5 799.5,-534.5 535.5,-534.5 535.5,-534.5 529.5,-534.5 523.5,-528.5 523.5,-522.5 523.5,-522.5 523.5,-362.5 523.5,-362.5 523.5,-356.5 529.5,-350.5 535.5,-350.5"/>
<text text-anchor="middle" x="667.5" y="-519.3" font-family="Times,serif" font-size="14.00" fill="#000000">name=%addmm</text>
<polyline fill="none" stroke="black" points="523.5,-511.5 811.5,-511.5 "/>
<text text-anchor="middle" x="667.5" y="-496.3" font-family="Times,serif" font-size="14.00" fill="#000000">op_code=call_function</text>
<polyline fill="none" stroke="black" points="523.5,-488.5 811.5,-488.5 "/>
<text text-anchor="middle" x="667.5" y="-473.3" font-family="Times,serif" font-size="14.00" fill="#000000">target=torch.ops.aten.addmm.default</text>
<polyline fill="none" stroke="black" points="523.5,-465.5 811.5,-465.5 "/>
<text text-anchor="middle" x="667.5" y="-450.3" font-family="Times,serif" font-size="14.00" fill="#000000">num_users=1</text>
<polyline fill="none" stroke="black" points="523.5,-442.5 811.5,-442.5 "/>
<text text-anchor="middle" x="667.5" y="-427.3" font-family="Times,serif" font-size="14.00" fill="#000000">dtype=torch.float32</text>
<polyline fill="none" stroke="black" points="523.5,-419.5 811.5,-419.5 "/>
<text text-anchor="middle" x="667.5" y="-404.3" font-family="Times,serif" font-size="14.00" fill="#000000">shape=(20, 100)</text>
<polyline fill="none" stroke="black" points="523.5,-396.5 811.5,-396.5 "/>
<text text-anchor="middle" x="667.5" y="-381.3" font-family="Times,serif" font-size="14.00" fill="#000000">requires_grad=False</text>
<polyline fill="none" stroke="black" points="523.5,-373.5 811.5,-373.5 "/>
<text text-anchor="middle" x="667.5" y="-358.3" font-family="Times,serif" font-size="14.00" fill="#000000">stride=(100, 1)</text>
</g>
<!-- detach_1&#45;&gt;addmm -->
<g id="edge4" class="edge">
<title>detach_1&#45;&gt;addmm</title>
<path fill="none" stroke="black" d="M434.15,-575.93C436.95,-574.27 439.74,-572.62 442.5,-571 465.68,-557.37 490.33,-543.13 514.49,-529.33"/>
<polygon fill="black" stroke="black" points="516.42,-532.26 523.37,-524.26 512.95,-526.18 516.42,-532.26"/>
</g>
<!-- _param_constant0 -->
<g id="node6" class="node">
<title>_param_constant0</title>
<path fill="LightGrey" stroke="black" d="M479,-838.5C479,-838.5 666,-838.5 666,-838.5 672,-838.5 678,-844.5 678,-850.5 678,-850.5 678,-918.5 678,-918.5 678,-924.5 672,-930.5 666,-930.5 666,-930.5 479,-930.5 479,-930.5 473,-930.5 467,-924.5 467,-918.5 467,-918.5 467,-850.5 467,-850.5 467,-844.5 473,-838.5 479,-838.5"/>
<text text-anchor="middle" x="572.5" y="-915.3" font-family="Times,serif" font-size="14.00" fill="#000000">name=%_param_constant0</text>
<polyline fill="none" stroke="black" points="467,-907.5 678,-907.5 "/>
<text text-anchor="middle" x="572.5" y="-892.3" font-family="Times,serif" font-size="14.00" fill="#000000">op_code=get_attr</text>
<polyline fill="none" stroke="black" points="467,-884.5 678,-884.5 "/>
<text text-anchor="middle" x="572.5" y="-869.3" font-family="Times,serif" font-size="14.00" fill="#000000">target=_param_constant0</text>
<polyline fill="none" stroke="black" points="467,-861.5 678,-861.5 "/>
<text text-anchor="middle" x="572.5" y="-846.3" font-family="Times,serif" font-size="14.00" fill="#000000">num_users=1</text>
</g>
<!-- t -->
<g id="node7" class="node">
<title>t</title>
<path fill="#caff70" stroke="black" d="M464,-571.5C464,-571.5 681,-571.5 681,-571.5 687,-571.5 693,-577.5 693,-583.5 693,-583.5 693,-743.5 693,-743.5 693,-749.5 687,-755.5 681,-755.5 681,-755.5 464,-755.5 464,-755.5 458,-755.5 452,-749.5 452,-743.5 452,-743.5 452,-583.5 452,-583.5 452,-577.5 458,-571.5 464,-571.5"/>
<text text-anchor="middle" x="572.5" y="-740.3" font-family="Times,serif" font-size="14.00" fill="#000000">name=%t</text>
<polyline fill="none" stroke="black" points="452,-732.5 693,-732.5 "/>
<text text-anchor="middle" x="572.5" y="-717.3" font-family="Times,serif" font-size="14.00" fill="#000000">op_code=call_function</text>
<polyline fill="none" stroke="black" points="452,-709.5 693,-709.5 "/>
<text text-anchor="middle" x="572.5" y="-694.3" font-family="Times,serif" font-size="14.00" fill="#000000">target=torch.ops.aten.t.default</text>
<polyline fill="none" stroke="black" points="452,-686.5 693,-686.5 "/>
<text text-anchor="middle" x="572.5" y="-671.3" font-family="Times,serif" font-size="14.00" fill="#000000">num_users=1</text>
<polyline fill="none" stroke="black" points="452,-663.5 693,-663.5 "/>
<text text-anchor="middle" x="572.5" y="-648.3" font-family="Times,serif" font-size="14.00" fill="#000000">dtype=torch.float32</text>
<polyline fill="none" stroke="black" points="452,-640.5 693,-640.5 "/>
<text text-anchor="middle" x="572.5" y="-625.3" font-family="Times,serif" font-size="14.00" fill="#000000">shape=(50, 100)</text>
<polyline fill="none" stroke="black" points="452,-617.5 693,-617.5 "/>
<text text-anchor="middle" x="572.5" y="-602.3" font-family="Times,serif" font-size="14.00" fill="#000000">requires_grad=False</text>
<polyline fill="none" stroke="black" points="452,-594.5 693,-594.5 "/>
<text text-anchor="middle" x="572.5" y="-579.3" font-family="Times,serif" font-size="14.00" fill="#000000">stride=(1, 50)</text>
</g>
<!-- _param_constant0&#45;&gt;t -->
<g id="edge5" class="edge">
<title>_param_constant0&#45;&gt;t</title>
<path fill="none" stroke="black" d="M572.5,-838.39C572.5,-817.28 572.5,-791.21 572.5,-765.74"/>
<polygon fill="black" stroke="black" points="576,-765.64 572.5,-755.64 569,-765.64 576,-765.64"/>
</g>
<!-- t&#45;&gt;addmm -->
<g id="edge6" class="edge">
<title>t&#45;&gt;addmm</title>
<path fill="none" stroke="black" d="M612.1,-571.21C615.99,-562.24 619.96,-553.1 623.89,-544.04"/>
<polygon fill="black" stroke="black" points="627.19,-545.21 627.96,-534.64 620.77,-542.42 627.19,-545.21"/>
</g>
<!-- _param_constant1 -->
<g id="node8" class="node">
<title>_param_constant1</title>
<path fill="LightGrey" stroke="black" d="M723,-617.5C723,-617.5 910,-617.5 910,-617.5 916,-617.5 922,-623.5 922,-629.5 922,-629.5 922,-697.5 922,-697.5 922,-703.5 916,-709.5 910,-709.5 910,-709.5 723,-709.5 723,-709.5 717,-709.5 711,-703.5 711,-697.5 711,-697.5 711,-629.5 711,-629.5 711,-623.5 717,-617.5 723,-617.5"/>
<text text-anchor="middle" x="816.5" y="-694.3" font-family="Times,serif" font-size="14.00" fill="#000000">name=%_param_constant1</text>
<polyline fill="none" stroke="black" points="711,-686.5 922,-686.5 "/>
<text text-anchor="middle" x="816.5" y="-671.3" font-family="Times,serif" font-size="14.00" fill="#000000">op_code=get_attr</text>
<polyline fill="none" stroke="black" points="711,-663.5 922,-663.5 "/>
<text text-anchor="middle" x="816.5" y="-648.3" font-family="Times,serif" font-size="14.00" fill="#000000">target=_param_constant1</text>
<polyline fill="none" stroke="black" points="711,-640.5 922,-640.5 "/>
<text text-anchor="middle" x="816.5" y="-625.3" font-family="Times,serif" font-size="14.00" fill="#000000">num_users=1</text>
</g>
<!-- _param_constant1&#45;&gt;addmm -->
<g id="edge7" class="edge">
<title>_param_constant1&#45;&gt;addmm</title>
<path fill="none" stroke="black" d="M785.81,-617.39C771.13,-595.81 752.92,-569.05 735.23,-543.05"/>
<polygon fill="black" stroke="black" points="738.03,-540.94 729.51,-534.64 732.24,-544.88 738.03,-540.94"/>
</g>
<!-- addmm_1 -->
<g id="node13" class="node">
<title>addmm_1</title>
<path fill="#ffe1ff" stroke="black" d="M865.5,-129.5C865.5,-129.5 1129.5,-129.5 1129.5,-129.5 1135.5,-129.5 1141.5,-135.5 1141.5,-141.5 1141.5,-141.5 1141.5,-301.5 1141.5,-301.5 1141.5,-307.5 1135.5,-313.5 1129.5,-313.5 1129.5,-313.5 865.5,-313.5 865.5,-313.5 859.5,-313.5 853.5,-307.5 853.5,-301.5 853.5,-301.5 853.5,-141.5 853.5,-141.5 853.5,-135.5 859.5,-129.5 865.5,-129.5"/>
<text text-anchor="middle" x="997.5" y="-298.3" font-family="Times,serif" font-size="14.00" fill="#000000">name=%addmm_1</text>
<polyline fill="none" stroke="black" points="853.5,-290.5 1141.5,-290.5 "/>
<text text-anchor="middle" x="997.5" y="-275.3" font-family="Times,serif" font-size="14.00" fill="#000000">op_code=call_function</text>
<polyline fill="none" stroke="black" points="853.5,-267.5 1141.5,-267.5 "/>
<text text-anchor="middle" x="997.5" y="-252.3" font-family="Times,serif" font-size="14.00" fill="#000000">target=torch.ops.aten.addmm.default</text>
<polyline fill="none" stroke="black" points="853.5,-244.5 1141.5,-244.5 "/>
<text text-anchor="middle" x="997.5" y="-229.3" font-family="Times,serif" font-size="14.00" fill="#000000">num_users=1</text>
<polyline fill="none" stroke="black" points="853.5,-221.5 1141.5,-221.5 "/>
<text text-anchor="middle" x="997.5" y="-206.3" font-family="Times,serif" font-size="14.00" fill="#000000">dtype=torch.float32</text>
<polyline fill="none" stroke="black" points="853.5,-198.5 1141.5,-198.5 "/>
<text text-anchor="middle" x="997.5" y="-183.3" font-family="Times,serif" font-size="14.00" fill="#000000">shape=(20, 50)</text>
<polyline fill="none" stroke="black" points="853.5,-175.5 1141.5,-175.5 "/>
<text text-anchor="middle" x="997.5" y="-160.3" font-family="Times,serif" font-size="14.00" fill="#000000">requires_grad=False</text>
<polyline fill="none" stroke="black" points="853.5,-152.5 1141.5,-152.5 "/>
<text text-anchor="middle" x="997.5" y="-137.3" font-family="Times,serif" font-size="14.00" fill="#000000">stride=(50, 1)</text>
</g>
<!-- addmm&#45;&gt;addmm_1 -->
<g id="edge8" class="edge">
<title>addmm&#45;&gt;addmm_1</title>
<path fill="none" stroke="black" d="M805.06,-350.21C820.43,-340.01 836.13,-329.59 851.6,-319.33"/>
<polygon fill="black" stroke="black" points="853.77,-322.09 860.16,-313.64 849.9,-316.26 853.77,-322.09"/>
</g>
<!-- _param_constant2 -->
<g id="node10" class="node">
<title>_param_constant2</title>
<path fill="LightGrey" stroke="black" d="M952,-617.5C952,-617.5 1139,-617.5 1139,-617.5 1145,-617.5 1151,-623.5 1151,-629.5 1151,-629.5 1151,-697.5 1151,-697.5 1151,-703.5 1145,-709.5 1139,-709.5 1139,-709.5 952,-709.5 952,-709.5 946,-709.5 940,-703.5 940,-697.5 940,-697.5 940,-629.5 940,-629.5 940,-623.5 946,-617.5 952,-617.5"/>
<text text-anchor="middle" x="1045.5" y="-694.3" font-family="Times,serif" font-size="14.00" fill="#000000">name=%_param_constant2</text>
<polyline fill="none" stroke="black" points="940,-686.5 1151,-686.5 "/>
<text text-anchor="middle" x="1045.5" y="-671.3" font-family="Times,serif" font-size="14.00" fill="#000000">op_code=get_attr</text>
<polyline fill="none" stroke="black" points="940,-663.5 1151,-663.5 "/>
<text text-anchor="middle" x="1045.5" y="-648.3" font-family="Times,serif" font-size="14.00" fill="#000000">target=_param_constant2</text>
<polyline fill="none" stroke="black" points="940,-640.5 1151,-640.5 "/>
<text text-anchor="middle" x="1045.5" y="-625.3" font-family="Times,serif" font-size="14.00" fill="#000000">num_users=1</text>
</g>
<!-- t_1 -->
<g id="node11" class="node">
<title>t_1</title>
<path fill="#caff70" stroke="black" d="M889,-350.5C889,-350.5 1106,-350.5 1106,-350.5 1112,-350.5 1118,-356.5 1118,-362.5 1118,-362.5 1118,-522.5 1118,-522.5 1118,-528.5 1112,-534.5 1106,-534.5 1106,-534.5 889,-534.5 889,-534.5 883,-534.5 877,-528.5 877,-522.5 877,-522.5 877,-362.5 877,-362.5 877,-356.5 883,-350.5 889,-350.5"/>
<text text-anchor="middle" x="997.5" y="-519.3" font-family="Times,serif" font-size="14.00" fill="#000000">name=%t_1</text>
<polyline fill="none" stroke="black" points="877,-511.5 1118,-511.5 "/>
<text text-anchor="middle" x="997.5" y="-496.3" font-family="Times,serif" font-size="14.00" fill="#000000">op_code=call_function</text>
<polyline fill="none" stroke="black" points="877,-488.5 1118,-488.5 "/>
<text text-anchor="middle" x="997.5" y="-473.3" font-family="Times,serif" font-size="14.00" fill="#000000">target=torch.ops.aten.t.default</text>
<polyline fill="none" stroke="black" points="877,-465.5 1118,-465.5 "/>
<text text-anchor="middle" x="997.5" y="-450.3" font-family="Times,serif" font-size="14.00" fill="#000000">num_users=1</text>
<polyline fill="none" stroke="black" points="877,-442.5 1118,-442.5 "/>
<text text-anchor="middle" x="997.5" y="-427.3" font-family="Times,serif" font-size="14.00" fill="#000000">dtype=torch.float32</text>
<polyline fill="none" stroke="black" points="877,-419.5 1118,-419.5 "/>
<text text-anchor="middle" x="997.5" y="-404.3" font-family="Times,serif" font-size="14.00" fill="#000000">shape=(100, 50)</text>
<polyline fill="none" stroke="black" points="877,-396.5 1118,-396.5 "/>
<text text-anchor="middle" x="997.5" y="-381.3" font-family="Times,serif" font-size="14.00" fill="#000000">requires_grad=False</text>
<polyline fill="none" stroke="black" points="877,-373.5 1118,-373.5 "/>
<text text-anchor="middle" x="997.5" y="-358.3" font-family="Times,serif" font-size="14.00" fill="#000000">stride=(1, 100)</text>
</g>
<!-- _param_constant2&#45;&gt;t_1 -->
<g id="edge9" class="edge">
<title>_param_constant2&#45;&gt;t_1</title>
<path fill="none" stroke="black" d="M1035.61,-617.39C1030.99,-596.28 1025.27,-570.21 1019.69,-544.74"/>
<polygon fill="black" stroke="black" points="1023.04,-543.66 1017.48,-534.64 1016.2,-545.16 1023.04,-543.66"/>
</g>
<!-- t_1&#45;&gt;addmm_1 -->
<g id="edge10" class="edge">
<title>t_1&#45;&gt;addmm_1</title>
<path fill="none" stroke="black" d="M997.5,-350.21C997.5,-341.52 997.5,-332.68 997.5,-323.9"/>
<polygon fill="black" stroke="black" points="1001,-323.64 997.5,-313.64 994,-323.64 1001,-323.64"/>
</g>
<!-- _param_constant3 -->
<g id="node12" class="node">
<title>_param_constant3</title>
<path fill="LightGrey" stroke="black" d="M1148,-396.5C1148,-396.5 1335,-396.5 1335,-396.5 1341,-396.5 1347,-402.5 1347,-408.5 1347,-408.5 1347,-476.5 1347,-476.5 1347,-482.5 1341,-488.5 1335,-488.5 1335,-488.5 1148,-488.5 1148,-488.5 1142,-488.5 1136,-482.5 1136,-476.5 1136,-476.5 1136,-408.5 1136,-408.5 1136,-402.5 1142,-396.5 1148,-396.5"/>
<text text-anchor="middle" x="1241.5" y="-473.3" font-family="Times,serif" font-size="14.00" fill="#000000">name=%_param_constant3</text>
<polyline fill="none" stroke="black" points="1136,-465.5 1347,-465.5 "/>
<text text-anchor="middle" x="1241.5" y="-450.3" font-family="Times,serif" font-size="14.00" fill="#000000">op_code=get_attr</text>
<polyline fill="none" stroke="black" points="1136,-442.5 1347,-442.5 "/>
<text text-anchor="middle" x="1241.5" y="-427.3" font-family="Times,serif" font-size="14.00" fill="#000000">target=_param_constant3</text>
<polyline fill="none" stroke="black" points="1136,-419.5 1347,-419.5 "/>
<text text-anchor="middle" x="1241.5" y="-404.3" font-family="Times,serif" font-size="14.00" fill="#000000">num_users=1</text>
</g>
<!-- _param_constant3&#45;&gt;addmm_1 -->
<g id="edge11" class="edge">
<title>_param_constant3&#45;&gt;addmm_1</title>
<path fill="none" stroke="black" d="M1191.24,-396.39C1166.67,-374.34 1136.09,-346.89 1106.54,-320.37"/>
<polygon fill="black" stroke="black" points="1108.83,-317.72 1099.05,-313.64 1104.15,-322.93 1108.83,-317.72"/>
</g>
<!-- output -->
<g id="node14" class="node">
<title>output</title>
<path fill="PowderBlue" stroke="black" d="M943,-0.5C943,-0.5 1052,-0.5 1052,-0.5 1058,-0.5 1064,-6.5 1064,-12.5 1064,-12.5 1064,-80.5 1064,-80.5 1064,-86.5 1058,-92.5 1052,-92.5 1052,-92.5 943,-92.5 943,-92.5 937,-92.5 931,-86.5 931,-80.5 931,-80.5 931,-12.5 931,-12.5 931,-6.5 937,-0.5 943,-0.5"/>
<text text-anchor="middle" x="997.5" y="-77.3" font-family="Times,serif" font-size="14.00" fill="#000000">name=%output</text>
<polyline fill="none" stroke="black" points="931,-69.5 1064,-69.5 "/>
<text text-anchor="middle" x="997.5" y="-54.3" font-family="Times,serif" font-size="14.00" fill="#000000">op_code=output</text>
<polyline fill="none" stroke="black" points="931,-46.5 1064,-46.5 "/>
<text text-anchor="middle" x="997.5" y="-31.3" font-family="Times,serif" font-size="14.00" fill="#000000">target=output</text>
<polyline fill="none" stroke="black" points="931,-23.5 1064,-23.5 "/>
<text text-anchor="middle" x="997.5" y="-8.3" font-family="Times,serif" font-size="14.00" fill="#000000">num_users=0</text>
</g>
<!-- addmm_1&#45;&gt;output -->
<g id="edge12" class="edge">
<title>addmm_1&#45;&gt;output</title>
<path fill="none" stroke="black" d="M997.5,-129.44C997.5,-120.41 997.5,-111.45 997.5,-102.95"/>
<polygon fill="black" stroke="black" points="1001,-102.84 997.5,-92.84 994,-102.84 1001,-102.84"/>
</g>
</g>
</svg>
